<svg width="25" height="24" viewBox="0 0 25 24" fill="none" xmlns="http://www.w3.org/2000/svg">
<path d="M7.25 8H17.25V10H7.25V8Z" fill="#CC007A"/>
<path d="M7.25 12H15.25V14H7.25V12Z" fill="#CC007A"/>
<path fill-rule="evenodd" clip-rule="evenodd" d="M6.25 3C5.18913 3 4.17172 3.42143 3.42157 4.17157C2.67143 4.92172 2.25 5.93913 2.25 7V15C2.25 16.0609 2.67143 17.0783 3.42157 17.8284C4.17172 18.5786 5.18913 19 6.25 19H8.83579L12.25 22.4142L15.6642 19H18.25C19.3109 19 20.3283 18.5786 21.0784 17.8284C21.8286 17.0783 22.25 16.0609 22.25 15V7C22.25 5.93913 21.8286 4.92172 21.0784 4.17157C20.3283 3.42143 19.3109 3 18.25 3H6.25ZM4.83579 5.58579C5.21086 5.21071 5.71957 5 6.25 5H18.25C18.7804 5 19.2891 5.21071 19.6642 5.58579C20.0393 5.96086 20.25 6.46957 20.25 7V15C20.25 15.5304 20.0393 16.0391 19.6642 16.4142C19.2891 16.7893 18.7804 17 18.25 17H14.8358L12.25 19.5858L9.66421 17H6.25C5.71957 17 5.21086 16.7893 4.83579 16.4142C4.46071 16.0391 4.25 15.5304 4.25 15V7C4.25 6.46957 4.46071 5.96086 4.83579 5.58579Z" fill="#CC007A"/>
</svg>
