<svg width="24" height="24" viewBox="0 0 24 24" fill="none" xmlns="http://www.w3.org/2000/svg">
<path fill-rule="evenodd" clip-rule="evenodd" d="M12 7C10.9391 7 9.92172 7.42143 9.17157 8.17157C8.42143 8.92172 8 9.93913 8 11C8 12.0609 8.42143 13.0783 9.17157 13.8284C9.92172 14.5786 10.9391 15 12 15C13.0609 15 14.0783 14.5786 14.8284 13.8284C15.5786 13.0783 16 12.0609 16 11C16 9.93913 15.5786 8.92172 14.8284 8.17157C14.0783 7.42143 13.0609 7 12 7ZM10.5858 9.58579C10.9609 9.21071 11.4696 9 12 9C12.5304 9 13.0391 9.21071 13.4142 9.58579C13.7893 9.96086 14 10.4696 14 11C14 11.5304 13.7893 12.0391 13.4142 12.4142C13.0391 12.7893 12.5304 13 12 13C11.4696 13 10.9609 12.7893 10.5858 12.4142C10.2107 12.0391 10 11.5304 10 11C10 10.4696 10.2107 9.96086 10.5858 9.58579Z" fill="#A8A8A8"/>
<path fill-rule="evenodd" clip-rule="evenodd" d="M12 2.00024C10.22 2.00024 8.47995 2.52807 6.99992 3.51699C5.51989 4.5059 4.36633 5.91148 3.68513 7.55599C3.00393 9.20049 2.82567 11.0101 3.1729 12.7559C3.52013 14.5017 4.37735 16.1055 5.63598 17.3641L9.88025 21.6074C10.4428 22.1694 11.2054 22.485 12.0005 22.485C12.7956 22.485 13.5586 22.169 14.1211 21.6071L18.3641 17.364C19.6228 16.1053 20.4799 14.5017 20.8271 12.7559C21.1743 11.0101 20.9961 9.20049 20.3149 7.55599C19.6337 5.91148 18.4801 4.5059 17.0001 3.51699C15.5201 2.52807 13.78 2.00024 12 2.00024ZM8.11105 5.17993C9.26219 4.41078 10.6156 4.00024 12 4.00024C13.3845 4.00024 14.7378 4.41078 15.889 5.17993C17.0401 5.94909 17.9373 7.04232 18.4671 8.32138C18.997 9.60044 19.1356 11.0079 18.8655 12.3657C18.5955 13.7236 17.9288 14.9709 16.9499 15.9499L12.7073 20.1925C12.5197 20.3798 12.2655 20.485 12.0005 20.485C11.7355 20.485 11.4813 20.3798 11.2938 20.1925L7.05003 15.9498C6.07115 14.9708 5.40454 13.7236 5.13448 12.3657C4.86441 11.0079 5.00306 9.60044 5.53288 8.32138C6.06271 7.04232 6.95991 5.94909 8.11105 5.17993Z" fill="#A8A8A8"/>
</svg>
