<svg width="25" height="24" viewBox="0 0 25 24" fill="none" xmlns="http://www.w3.org/2000/svg">
<path fill-rule="evenodd" clip-rule="evenodd" d="M9.21447 3.46447C10.1521 2.52678 11.4239 2 12.75 2C14.0761 2 15.3479 2.52678 16.2855 3.46447C17.2232 4.40215 17.75 5.67392 17.75 7C17.75 8.32608 17.2232 9.59785 16.2855 10.5355C15.3479 11.4732 14.0761 12 12.75 12C11.4239 12 10.1521 11.4732 9.21447 10.5355C8.27678 9.59785 7.75 8.32608 7.75 7C7.75 5.67392 8.27678 4.40215 9.21447 3.46447ZM12.75 4C11.9544 4 11.1913 4.31607 10.6287 4.87868C10.0661 5.44129 9.75 6.20435 9.75 7C9.75 7.79565 10.0661 8.55871 10.6287 9.12132C11.1913 9.68393 11.9544 10 12.75 10C13.5456 10 14.3087 9.68393 14.8713 9.12132C15.4339 8.55871 15.75 7.79565 15.75 7C15.75 6.20435 15.4339 5.44129 14.8713 4.87868C14.3087 4.31607 13.5456 4 12.75 4Z" fill="#CC007A"/>
<path d="M10.75 16C9.95435 16 9.19129 16.3161 8.62868 16.8787C8.06607 17.4413 7.75 18.2043 7.75 19V22H5.75V19C5.75 17.6739 6.27678 16.4021 7.21447 15.4645C8.15215 14.5268 9.42392 14 10.75 14H12.25V16H10.75Z" fill="#CC007A"/>
<path fill-rule="evenodd" clip-rule="evenodd" d="M16.9683 14.0004C16.1235 13.9988 15.3114 14.327 14.705 14.9151C14.4036 15.2074 14.1638 15.5571 13.9998 15.9435C13.8358 16.33 13.7508 16.7454 13.75 17.1653C13.7492 17.5851 13.8325 18.0008 13.995 18.388C14.1573 18.7746 14.3953 19.1248 14.6951 19.4181L14.6962 19.4191L18.7494 23.4011L22.7965 19.4336L22.7986 19.4317C23.0989 19.1397 23.3379 18.7906 23.5014 18.405C23.6653 18.0184 23.75 17.603 23.7507 17.1832C23.7514 16.7633 23.668 16.3476 23.5054 15.9606C23.3428 15.5737 23.1044 15.2233 22.8043 14.9301C22.2001 14.3391 21.3889 14.0075 20.5438 14.0059C19.9032 14.0047 19.2815 14.193 18.754 14.5406C18.2282 14.1919 17.608 14.0016 16.9683 14.0004ZM16.0973 16.3508C16.3297 16.1255 16.6408 15.9997 16.9644 16.0004C17.2874 16.001 17.5974 16.1274 17.8287 16.3528L18.7506 17.2622L19.6744 16.3549C19.9065 16.1305 20.217 16.0053 20.5399 16.0059C20.8637 16.0065 21.1749 16.134 21.4064 16.3604C21.5156 16.4671 21.6024 16.5945 21.6615 16.7353C21.7206 16.8761 21.751 17.0272 21.7507 17.1799C21.7505 17.3326 21.7197 17.4837 21.66 17.6242C21.6004 17.7648 21.5133 17.892 21.4037 17.9983L18.7509 20.5989L16.0959 17.9906L16.0941 17.9888C15.9849 17.8821 15.8982 17.7546 15.8391 17.6138C15.78 17.473 15.7497 17.3219 15.75 17.1692C15.7503 17.0165 15.7812 16.8654 15.8408 16.7249C15.9005 16.5843 15.9877 16.4571 16.0973 16.3508Z" fill="#CC007A"/>
</svg>
