<svg width="40" height="40" viewBox="0 0 40 40" fill="none" xmlns="http://www.w3.org/2000/svg">
<path fill-rule="evenodd" clip-rule="evenodd" d="M20 10C18.6739 10 17.4021 10.5268 16.4645 11.4645C15.5268 12.4021 15 13.6739 15 15C15 16.3261 15.5268 17.5979 16.4645 18.5355C17.4021 19.4732 18.6739 20 20 20C21.3261 20 22.5979 19.4732 23.5355 18.5355C24.4732 17.5979 25 16.3261 25 15C25 13.6739 24.4732 12.4021 23.5355 11.4645C22.5979 10.5268 21.3261 10 20 10ZM17.8787 12.8787C18.4413 12.3161 19.2044 12 20 12C20.7956 12 21.5587 12.3161 22.1213 12.8787C22.6839 13.4413 23 14.2044 23 15C23 15.7956 22.6839 16.5587 22.1213 17.1213C21.5587 17.6839 20.7956 18 20 18C19.2044 18 18.4413 17.6839 17.8787 17.1213C17.3161 16.5587 17 15.7956 17 15C17 14.2044 17.3161 13.4413 17.8787 12.8787ZM15.8787 24.8787C16.4413 24.3161 17.2044 24 18 24H22.5V22H18C16.6739 22 15.4021 22.5268 14.4645 23.4645C13.5268 24.4021 13 25.6739 13 27V30H15V27C15 26.2043 15.3161 25.4413 15.8787 24.8787ZM28.9144 27.5L31.4144 30L30.0002 31.4142L27.5002 28.9142L25.0002 31.4142L23.5859 30L26.0859 27.5L23.5859 25L25.0002 23.5858L27.5002 26.0858L30.0002 23.5858L31.4144 25L28.9144 27.5Z" fill="#E4261A"/>
</svg>
