<svg width="40" height="40" viewBox="0 0 40 40" fill="none" xmlns="http://www.w3.org/2000/svg">
<path fill-rule="evenodd" clip-rule="evenodd" d="M22.896 10.417C20.8393 9.79476 18.6368 9.85151 16.6149 10.5789C14.593 11.3063 12.8592 12.6656 11.6702 14.4555C10.4813 16.2453 9.90052 18.3706 10.0139 20.5164C10.1274 22.6621 10.9289 24.7143 12.2999 26.3689C13.6709 28.0235 15.5384 29.1924 17.6258 29.7026C19.7131 30.2128 21.9093 30.037 23.8889 29.2014L24.8102 28.8125L24.0324 26.9699L23.1111 27.3588C21.5274 28.0273 19.7705 28.1679 18.1006 27.7598C16.4307 27.3516 14.9368 26.4165 13.84 25.0928C12.7432 23.7692 12.1019 22.1274 12.0112 20.4108C11.9204 18.6942 12.385 16.994 13.3362 15.5621C14.2873 14.1302 15.6744 13.0427 17.2919 12.4608C18.9095 11.8789 20.6714 11.8335 22.3168 12.3313C23.9621 12.8292 25.4034 13.8437 26.427 15.2248C27.4506 16.6058 28.0022 18.2798 28 19.9988V21.5001C28 21.8979 27.842 22.2794 27.5607 22.5608C27.2794 22.8421 26.8978 23.0001 26.5 23.0001C26.1022 23.0001 25.7206 22.8421 25.4393 22.5608C25.158 22.2794 25 21.8979 25 21.5001L25 20.0001C25 18.674 24.4732 17.4022 23.5355 16.4645C22.5979 15.5268 21.3261 15.0001 20 15.0001C18.6739 15.0001 17.4021 15.5268 16.4645 16.4645C15.5268 17.4022 15 18.674 15 20.0001C15 21.3261 15.5268 22.5979 16.4645 23.5356C17.4021 24.4733 18.6739 25.0001 20 25.0001C21.3261 25.0001 22.5979 24.4733 23.5355 23.5356C23.5586 23.5125 23.5815 23.4892 23.6041 23.4657C23.7272 23.6471 23.8679 23.8177 24.0251 23.975C24.6815 24.6313 25.5717 25.0001 26.5 25.0001C27.4283 25.0001 28.3185 24.6313 28.9749 23.975C29.6312 23.3186 30 22.4283 30 21.5001V20.0014C30.0028 17.8526 29.3133 15.7601 28.0338 14.0338C26.7542 12.3075 24.9527 11.0393 22.896 10.417ZM23 19.9967V20.0034C22.9991 20.7979 22.6831 21.5596 22.1213 22.1214C21.5587 22.684 20.7956 23.0001 20 23.0001C19.2044 23.0001 18.4413 22.684 17.8787 22.1214C17.3161 21.5588 17 20.7957 17 20.0001C17 19.2044 17.3161 18.4413 17.8787 17.8787C18.4413 17.3161 19.2044 17.0001 20 17.0001C20.7956 17.0001 21.5587 17.3161 22.1213 17.8787C22.6831 18.4406 22.9991 19.2022 23 19.9967Z" fill="currentColor"/>
</svg>
