<svg width="40" height="40" viewBox="0 0 40 40" fill="none" xmlns="http://www.w3.org/2000/svg">
<path fill-rule="evenodd" clip-rule="evenodd" d="M16.001 26H12.0006L11.5078 24.1298C11.9165 23.8984 12.2652 23.5742 12.5257 23.1834C12.7759 22.8082 12.9381 22.3815 13.0006 21.9353V19L13.0017 18.9531C13.0697 17.5029 13.5312 16.0986 14.3365 14.8906C15.0369 13.8399 15.9746 12.9722 17.0706 12.3557C17.1926 11.8006 17.471 11.2869 17.8792 10.8787C18.4419 10.3161 19.2049 10 20.0006 10C20.7962 10 21.5593 10.3161 22.1219 10.8787C22.5301 11.2869 22.8085 11.8006 22.9306 12.3557C24.0265 12.9722 24.9642 13.8399 25.6647 14.8906C26.47 16.0986 26.9314 17.5029 26.9995 18.9531L27.0006 19V21.9354C27.063 22.3815 27.2253 22.8082 27.4754 23.1834C27.736 23.5742 28.0846 23.8984 28.4933 24.1298L28.0006 26H24.001C24.001 27.0609 23.5795 28.0783 22.8294 28.8284C22.0793 29.5786 21.0618 30 20.001 30C18.9401 30 17.9227 29.5786 17.1725 28.8284C16.4224 28.0783 16.001 27.0609 16.001 26ZM19.2935 12.2929C19.481 12.1054 19.7353 12 20.0006 12C20.2658 12 20.5201 12.1054 20.7077 12.2929C20.8952 12.4804 21.0006 12.7348 21.0006 13L21.5731 13.904C22.5574 14.3695 23.3966 15.094 24.0006 16C24.6004 16.8997 24.9458 17.9447 25.0006 19.0244V22L25.0078 22.1202C25.0881 22.7832 25.3002 23.4222 25.6304 24H14.3708C14.701 23.4222 14.9131 22.7832 14.9933 22.1202L15.0006 22V19.0244C15.0553 17.9447 15.4008 16.8997 16.0006 16C16.6046 15.094 17.4437 14.3695 18.428 13.904L19.0006 13C19.0006 12.7348 19.1059 12.4804 19.2935 12.2929ZM18.001 26C18.001 26.5304 18.2117 27.0391 18.5868 27.4142C18.9618 27.7893 19.4705 28 20.001 28C20.5314 28 21.0401 27.7893 21.4152 27.4142C21.7903 27.0391 22.001 26.5304 22.001 26H18.001Z" fill="currentColor"/>
</svg>
