<svg width="40" height="40" viewBox="0 0 40 40" fill="none" xmlns="http://www.w3.org/2000/svg">
<path fill-rule="evenodd" clip-rule="evenodd" d="M16.3395 20.5528L15.234 20L16.3395 19.4472L15.4451 17.6584L13.998 18.3819V17H11.998V18.3821L10.5507 17.6584L9.65625 19.4472L10.7618 20L9.65625 20.5528L10.5507 22.3417L11.998 21.618V23H13.998V21.6181L15.4451 22.3417L16.3395 20.5528ZM20.998 17V18.3819L22.4451 17.6584L23.3395 19.4472L22.234 20L23.3395 20.5528L22.4451 22.3417L20.998 21.6181V23H18.998V21.618L17.5507 22.3417L16.6562 20.5528L17.7618 20L16.6562 19.4472L17.5507 17.6584L18.998 18.3821V17H20.998ZM29.234 20L30.3395 20.5528L29.4451 22.3417L27.998 21.6181V23H25.998V21.618L24.5507 22.3417L23.6562 20.5528L24.7618 20L23.6562 19.4472L24.5507 17.6584L25.998 18.3821V17H27.998V18.3819L29.4451 17.6584L30.3395 19.4472L29.234 20Z" fill="currentColor"/>
</svg>
