<svg width="40" height="40" viewBox="0 0 40 40" fill="none" xmlns="http://www.w3.org/2000/svg">
<path d="M14 22H16.01V24H14V22Z" fill="currentColor"/>
<path d="M22 22H18V24H22V22Z" fill="currentColor"/>
<path fill-rule="evenodd" clip-rule="evenodd" d="M10 16C10 14.9391 10.4214 13.9217 11.1716 13.1716C11.9217 12.4214 12.9391 12 14 12H26C27.0609 12 28.0783 12.4214 28.8284 13.1716C29.5786 13.9217 30 14.9391 30 16V24C30 25.0609 29.5786 26.0783 28.8284 26.8284C28.0783 27.5786 27.0609 28 26 28H14C12.9391 28 11.9217 27.5786 11.1716 26.8284C10.4214 26.0783 10 25.0609 10 24V16ZM12.5858 14.5858C12.9609 14.2107 13.4696 14 14 14H26C26.5304 14 27.0391 14.2107 27.4142 14.5858C27.7893 14.9609 28 15.4696 28 16V17H12V16C12 15.4696 12.2107 14.9609 12.5858 14.5858ZM28 19V24C28 24.5304 27.7893 25.0391 27.4142 25.4142C27.0391 25.7893 26.5304 26 26 26H14C13.4696 26 12.9609 25.7893 12.5858 25.4142C12.2107 25.0391 12 24.5304 12 24V19H28Z" fill="currentColor"/>
</svg>
