<svg width="40" height="40" viewBox="0 0 40 40" fill="none" xmlns="http://www.w3.org/2000/svg">
<path fill-rule="evenodd" clip-rule="evenodd" d="M19.7875 10.9701C20.817 10.3299 22.1537 10 23.5 10C24.8463 10 26.183 10.3299 27.2125 10.9701C28.2327 11.6045 29 12.5912 29 13.8V17.6V21.4V25.2C29 26.4519 28.1887 27.4229 27.2123 28.0299C26.2178 28.6483 24.903 29 23.5 29C22.097 29 20.7822 28.6483 19.7877 28.0299C18.8113 27.4229 18 26.4519 18 25.2V21.4V17.6V13.8C18 12.5912 18.7673 11.6045 19.7875 10.9701ZM19.8333 16.6581V17.6C19.8333 17.9222 20.0482 18.3762 20.7308 18.8007C21.3952 19.2137 22.3721 19.5 23.5 19.5C24.6279 19.5 25.6048 19.2137 26.2692 18.8007C26.9518 18.3762 27.1667 17.9222 27.1667 17.6V16.6581C26.1434 17.2798 24.8264 17.6 23.5 17.6C22.1736 17.6 20.8566 17.2798 19.8333 16.6581ZM27.1667 13.8C27.1667 14.1029 26.9682 14.566 26.2693 15.0006C25.5798 15.4294 24.5848 15.7 23.5 15.7C22.4152 15.7 21.4202 15.4294 20.7307 15.0006C20.0318 14.566 19.8333 14.1029 19.8333 13.8C19.8333 13.4971 20.0318 13.034 20.7307 12.5994C21.4202 12.1706 22.4152 11.9 23.5 11.9C24.5848 11.9 25.5798 12.1706 26.2693 12.5994C26.9682 13.034 27.1667 13.4971 27.1667 13.8ZM27.1667 20.458C26.1777 21.059 24.8817 21.4 23.5 21.4C22.1183 21.4 20.8223 21.059 19.8333 20.458V21.4C19.8333 21.7222 20.0482 22.1762 20.7308 22.6007C21.3952 23.0137 22.3721 23.3 23.5 23.3C24.6279 23.3 25.6048 23.0137 26.2692 22.6007C26.9518 22.1762 27.1667 21.7222 27.1667 21.4V20.458ZM27.1667 24.258C26.1777 24.859 24.8817 25.2 23.5 25.2C22.1183 25.2 20.8223 24.859 19.8333 24.258V25.2C19.8333 25.5222 20.0482 25.9762 20.7308 26.4007C21.3952 26.8137 22.3721 27.1 23.5 27.1C24.6279 27.1 25.6048 26.8137 26.2692 26.4007C26.9518 25.9762 27.1667 25.5222 27.1667 25.2V24.258Z" fill="currentColor"/>
<path fill-rule="evenodd" clip-rule="evenodd" d="M13.0769 15.587V15H11.9231V15.587V15.9806C11.4225 16.0048 10.9474 16.2178 10.5914 16.58C10.2127 16.9652 10 17.4878 10 18.0326C10 18.5775 10.2127 19.1 10.5914 19.4853C10.9701 19.8705 11.4837 20.087 12.0192 20.087H12.9808C13.2103 20.087 13.4304 20.1797 13.5927 20.3448C13.755 20.5099 13.8462 20.7339 13.8462 20.9674C13.8462 21.2009 13.755 21.4248 13.5927 21.59C13.4304 21.7551 13.2103 21.8478 12.9808 21.8478H11.9231H10.5769H10V23.0217H10.5769H11.9231V23.413V24H13.0769V23.413V23.0194C13.5775 22.9952 14.0526 22.7822 14.4086 22.42C14.7873 22.0348 15 21.5122 15 20.9674C15 20.4225 14.7873 19.9 14.4086 19.5147C14.0299 19.1295 13.5163 18.913 12.9808 18.913H12.0192C11.7897 18.913 11.5696 18.8203 11.4073 18.6552C11.245 18.4901 11.1538 18.2661 11.1538 18.0326C11.1538 17.7991 11.245 17.5752 11.4073 17.41C11.5696 17.2449 11.7897 17.1522 12.0192 17.1522H13.0769H14.4231H15V15.9783H14.4231H13.0769V15.587Z" fill="currentColor"/>
</svg>
