<svg width="16" height="16" viewBox="0 0 16 16" fill="none" xmlns="http://www.w3.org/2000/svg">
<path fill-rule="evenodd" clip-rule="evenodd" d="M11.3333 2.66665V1.33331H10V2.66665H6V1.33331H4.66667V2.66665H4C3.46957 2.66665 2.96086 2.87736 2.58579 3.25243C2.21071 3.62751 2 4.13621 2 4.66665V12.6666C2 13.1971 2.21071 13.7058 2.58579 14.0809C2.96086 14.4559 3.46957 14.6666 4 14.6666H12C12.5304 14.6666 13.0391 14.4559 13.4142 14.0809C13.7893 13.7058 14 13.1971 14 12.6666V4.66665C14 4.13621 13.7893 3.62751 13.4142 3.25243C13.0391 2.87736 12.5304 2.66665 12 2.66665H11.3333ZM12.6667 6.66665V4.66665C12.6667 4.48984 12.5964 4.32027 12.4714 4.19524C12.3464 4.07022 12.1768 3.99998 12 3.99998H11.3333V5.33331H10V3.99998H6V5.33331H4.66667V3.99998H4C3.82319 3.99998 3.65362 4.07022 3.5286 4.19524C3.40357 4.32027 3.33333 4.48984 3.33333 4.66665V6.66665H12.6667ZM3.33333 7.99998V12.6666C3.33333 12.8435 3.40357 13.013 3.5286 13.1381C3.65362 13.2631 3.82319 13.3333 4 13.3333H12C12.1768 13.3333 12.3464 13.2631 12.4714 13.1381C12.5964 13.013 12.6667 12.8435 12.6667 12.6666V7.99998H3.33333Z" fill="currentColor"/>
</svg>
