<svg width="20" height="20" viewBox="0 0 20 20" fill="none" xmlns="http://www.w3.org/2000/svg">
<path fill-rule="evenodd" clip-rule="evenodd" d="M14.1667 3.33335V1.66669H12.5V3.33335H7.5V1.66669H5.83333V3.33335H5C4.33696 3.33335 3.70107 3.59675 3.23223 4.06559C2.76339 4.53443 2.5 5.17031 2.5 5.83335V15.8334C2.5 16.4964 2.76339 17.1323 3.23223 17.6011C3.70107 18.07 4.33696 18.3334 5 18.3334H15C15.663 18.3334 16.2989 18.07 16.7678 17.6011C17.2366 17.1323 17.5 16.4964 17.5 15.8334V5.83335C17.5 5.17031 17.2366 4.53443 16.7678 4.06559C16.2989 3.59675 15.663 3.33335 15 3.33335H14.1667ZM15.8333 8.33335V5.83335C15.8333 5.61234 15.7455 5.40038 15.5893 5.2441C15.433 5.08782 15.221 5.00002 15 5.00002H14.1667V6.66669H12.5V5.00002H7.5V6.66669H5.83333V5.00002H5C4.77899 5.00002 4.56702 5.08782 4.41074 5.2441C4.25446 5.40038 4.16667 5.61234 4.16667 5.83335V8.33335H15.8333ZM4.16667 10V15.8334C4.16667 16.0544 4.25446 16.2663 4.41074 16.4226C4.56702 16.5789 4.77899 16.6667 5 16.6667H15C15.221 16.6667 15.433 16.5789 15.5893 16.4226C15.7455 16.2663 15.8333 16.0544 15.8333 15.8334V10H4.16667Z" fill="currentColor"/>
</svg>
