<svg width="20" height="20" viewBox="0 0 20 20" fill="none" xmlns="http://www.w3.org/2000/svg">
<path d="M10.8327 9.16669H13.7493V10.8334H9.16602V5.00002H10.8327V9.16669Z" fill="currentColor"/>
<path fill-rule="evenodd" clip-rule="evenodd" d="M6.81032 2.30102C7.82137 1.88224 8.905 1.66669 9.99935 1.66669C11.0937 1.66669 12.1773 1.88224 13.1884 2.30102C14.1994 2.71981 15.1181 3.33364 15.8919 4.10746C16.6657 4.88128 17.2796 5.79994 17.6983 6.81099C18.1171 7.82204 18.3327 8.90567 18.3327 10C18.3327 11.0944 18.1171 12.178 17.6983 13.189C17.2796 14.2001 16.6657 15.1188 15.8919 15.8926C15.1181 16.6664 14.1994 17.2802 13.1884 17.699C12.1773 18.1178 11.0937 18.3334 9.99935 18.3334C8.905 18.3334 7.82137 18.1178 6.81032 17.699C5.79927 17.2802 4.88061 16.6664 4.10679 15.8926C3.33297 15.1188 2.71914 14.2001 2.30035 13.189C1.88156 12.178 1.66602 11.0944 1.66602 10C1.66602 8.90567 1.88156 7.82204 2.30035 6.81099C2.71914 5.79995 3.33297 4.88129 4.10679 4.10746C4.88061 3.33364 5.79927 2.71981 6.81032 2.30102ZM9.99935 3.33335C9.12387 3.33335 8.25696 3.50579 7.44813 3.84082C6.63929 4.17586 5.90436 4.66692 5.2853 5.28598C4.66625 5.90503 4.17518 6.63996 3.84015 7.4488C3.50512 8.25764 3.33268 9.12454 3.33268 10C3.33268 10.8755 3.50512 11.7424 3.84015 12.5512C4.17518 13.3601 4.66625 14.095 5.2853 14.7141C5.90436 15.3331 6.63929 15.8242 7.44813 16.1592C8.25696 16.4942 9.12387 16.6667 9.99935 16.6667C10.8748 16.6667 11.7417 16.4942 12.5506 16.1592C13.3594 15.8242 14.0943 15.3331 14.7134 14.7141C15.3325 14.095 15.8235 13.3601 16.1585 12.5512C16.4936 11.7424 16.666 10.8755 16.666 10C16.666 9.12454 16.4936 8.25763 16.1585 7.4488C15.8235 6.63996 15.3325 5.90503 14.7134 5.28598C14.0943 4.66692 13.3594 4.17586 12.5506 3.84082C11.7417 3.50579 10.8748 3.33335 9.99935 3.33335Z" fill="currentColor"/>
</svg>
