<svg width="40" height="40" viewBox="0 0 40 40" fill="none" xmlns="http://www.w3.org/2000/svg">
<path fill-rule="evenodd" clip-rule="evenodd" d="M19.8787 11.8787C20.4413 11.3161 21.2044 11 22 11C22.7956 11 23.5587 11.3161 24.1213 11.8787C24.4407 12.1981 24.6807 12.5821 24.8284 13H29V15H24.8284C24.6807 15.4179 24.4407 15.8019 24.1213 16.1213C23.5587 16.6839 22.7956 17 22 17C21.2044 17 20.4413 16.6839 19.8787 16.1213C19.5593 15.8019 19.3193 15.4179 19.1716 15H11V13H19.1716C19.3193 12.5821 19.5593 12.1981 19.8787 11.8787ZM23 14C23 13.7348 22.8946 13.4804 22.7071 13.2929C22.5196 13.1054 22.2652 13 22 13C21.7348 13 21.4804 13.1054 21.2929 13.2929C21.1054 13.4804 21 13.7348 21 14C21 14.2652 21.1054 14.5196 21.2929 14.7071C21.4804 14.8946 21.7348 15 22 15C22.2652 15 22.5196 14.8946 22.7071 14.7071C22.8946 14.5196 23 14.2652 23 14Z" fill="currentColor"/>
<path fill-rule="evenodd" clip-rule="evenodd" d="M13.8787 17.8787C14.4413 17.3161 15.2043 17 16 17C16.7957 17 17.5587 17.3161 18.1213 17.8787C18.4407 18.1981 18.6807 18.5821 18.8284 19H29V21H18.8284C18.6807 21.4179 18.4407 21.8019 18.1213 22.1213C17.5587 22.6839 16.7957 23 16 23C15.2043 23 14.4413 22.6839 13.8787 22.1213C13.5593 21.8019 13.3193 21.4179 13.1716 21H11V19H13.1716C13.3193 18.5821 13.5593 18.1981 13.8787 17.8787ZM16.7071 19.2929C16.8946 19.4804 17 19.7348 17 20C17 20.2652 16.8946 20.5196 16.7071 20.7071C16.5196 20.8946 16.2652 21 16 21C15.7348 21 15.4804 20.8946 15.2929 20.7071C15.1054 20.5196 15 20.2652 15 20C15 19.7348 15.1054 19.4804 15.2929 19.2929C15.4804 19.1054 15.7348 19 16 19C16.2652 19 16.5196 19.1054 16.7071 19.2929Z" fill="currentColor"/>
<path fill-rule="evenodd" clip-rule="evenodd" d="M25 23C24.2043 23 23.4413 23.3161 22.8787 23.8787C22.5593 24.1981 22.3193 24.5821 22.1716 25H11V27H22.1716C22.3193 27.4179 22.5593 27.8019 22.8787 28.1213C23.4413 28.6839 24.2043 29 25 29C25.7957 29 26.5587 28.6839 27.1213 28.1213C27.4407 27.8019 27.6807 27.4179 27.8284 27H29V25H27.8284C27.6807 24.5821 27.4407 24.1981 27.1213 23.8787C26.5587 23.3161 25.7957 23 25 23ZM26 26C26 25.7348 25.8946 25.4804 25.7071 25.2929C25.5196 25.1054 25.2652 25 25 25C24.7348 25 24.4804 25.1054 24.2929 25.2929C24.1054 25.4804 24 25.7348 24 26C24 26.2652 24.1054 26.5196 24.2929 26.7071C24.4804 26.8946 24.7348 27 25 27C25.2652 27 25.5196 26.8946 25.7071 26.7071C25.8946 26.5196 26 26.2652 26 26Z" fill="currentColor"/>
</svg>
