<svg width="20" height="20" viewBox="0 0 20 20" fill="none" xmlns="http://www.w3.org/2000/svg">
<path fill-rule="evenodd" clip-rule="evenodd" d="M10 5.83333C9.11595 5.83333 8.2681 6.18452 7.64298 6.80964C7.01786 7.43477 6.66667 8.28261 6.66667 9.16667C6.66667 10.0507 7.01786 10.8986 7.64298 11.5237C8.2681 12.1488 9.11595 12.5 10 12.5C10.8841 12.5 11.7319 12.1488 12.357 11.5237C12.9821 10.8986 13.3333 10.0507 13.3333 9.16667C13.3333 8.28261 12.9821 7.43477 12.357 6.80964C11.7319 6.18452 10.8841 5.83333 10 5.83333ZM8.82149 7.98816C9.13405 7.67559 9.55797 7.5 10 7.5C10.442 7.5 10.866 7.67559 11.1785 7.98816C11.4911 8.30072 11.6667 8.72464 11.6667 9.16667C11.6667 9.6087 11.4911 10.0326 11.1785 10.3452C10.866 10.6577 10.442 10.8333 10 10.8333C9.55797 10.8333 9.13405 10.6577 8.82149 10.3452C8.50893 10.0326 8.33333 9.6087 8.33333 9.16667C8.33333 8.72464 8.50893 8.30072 8.82149 7.98816Z" fill="currentColor"/>
<path fill-rule="evenodd" clip-rule="evenodd" d="M10 1.66687C8.51666 1.66687 7.06663 2.10673 5.83327 2.93082C4.59991 3.75491 3.63861 4.92623 3.07094 6.29666C2.50328 7.66708 2.35473 9.17506 2.64409 10.6299C2.93344 12.0848 3.6478 13.4212 4.69665 14.4701L8.23355 18.0062C8.70231 18.4745 9.33782 18.7375 10.0004 18.7375C10.663 18.7375 11.2988 18.4742 11.7676 18.0059L15.3034 14.47C16.3523 13.4211 17.0666 12.0848 17.3559 10.6299C17.6453 9.17506 17.4967 7.66708 16.9291 6.29666C16.3614 4.92623 15.4001 3.75491 14.1667 2.93082C12.9334 2.10673 11.4833 1.66687 10 1.66687ZM6.75921 4.31661C7.71849 3.67565 8.84629 3.33354 10 3.33354C11.1537 3.33354 12.2815 3.67565 13.2408 4.31661C14.2001 4.95757 14.9478 5.8686 15.3893 6.93448C15.8308 8.00037 15.9463 9.17324 15.7213 10.3048C15.4962 11.4363 14.9407 12.4757 14.1249 13.2916L10.5894 16.8271C10.4331 16.9832 10.2213 17.0709 10.0004 17.0709C9.77955 17.0709 9.56772 16.9832 9.41146 16.8271L5.87502 13.2915C5.05929 12.4757 4.50378 11.4363 4.27873 10.3048C4.05368 9.17324 4.16921 8.00037 4.61073 6.93448C5.05225 5.8686 5.79993 4.95757 6.75921 4.31661Z" fill="currentColor"/>
</svg>
