<svg width="40" height="40" viewBox="0 0 40 40" fill="none" xmlns="http://www.w3.org/2000/svg">
<path d="M15 16H25V18H15V16Z" fill="#CC007A"/>
<path d="M15 20H23V22H15V20Z" fill="#CC007A"/>
<path fill-rule="evenodd" clip-rule="evenodd" d="M14 11C12.9391 11 11.9217 11.4214 11.1716 12.1716C10.4214 12.9217 10 13.9391 10 15V23C10 24.0609 10.4214 25.0783 11.1716 25.8284C11.9217 26.5786 12.9391 27 14 27H16.5858L20 30.4142L23.4142 27H26C27.0609 27 28.0783 26.5786 28.8284 25.8284C29.5786 25.0783 30 24.0609 30 23V15C30 13.9391 29.5786 12.9217 28.8284 12.1716C28.0783 11.4214 27.0609 11 26 11H14ZM12.5858 13.5858C12.9609 13.2107 13.4696 13 14 13H26C26.5304 13 27.0391 13.2107 27.4142 13.5858C27.7893 13.9609 28 14.4696 28 15V23C28 23.5304 27.7893 24.0391 27.4142 24.4142C27.0391 24.7893 26.5304 25 26 25H22.5858L20 27.5858L17.4142 25H14C13.4696 25 12.9609 24.7893 12.5858 24.4142C12.2107 24.0391 12 23.5304 12 23V15C12 14.4696 12.2107 13.9609 12.5858 13.5858Z" fill="#CC007A"/>
</svg>
