<svg width="24" height="24" viewBox="0 0 24 24" fill="none" xmlns="http://www.w3.org/2000/svg">
<path d="M16.4144 6.00003L12.0002 1.58582L7.58594 6.00003L9.00015 7.41424L11 5.41439V15H13V5.41409L15.0002 7.41424L16.4144 6.00003Z" fill="currentColor"/>
<path d="M4.87868 8.87868C5.44129 8.31607 6.20435 8 7 8H9V10H7C6.73478 10 6.48043 10.1054 6.29289 10.2929C6.10536 10.4804 6 10.7348 6 11V19C6 19.2652 6.10536 19.5196 6.29289 19.7071C6.48043 19.8946 6.73478 20 7 20H17C17.2652 20 17.5196 19.8946 17.7071 19.7071C17.8946 19.5196 18 19.2652 18 19V11C18 10.7348 17.8946 10.4804 17.7071 10.2929C17.5196 10.1054 17.2652 10 17 10H15V8H17C17.7957 8 18.5587 8.31607 19.1213 8.87868C19.6839 9.44129 20 10.2043 20 11V19C20 19.7957 19.6839 20.5587 19.1213 21.1213C18.5587 21.6839 17.7957 22 17 22H7C6.20435 22 5.44129 21.6839 4.87868 21.1213C4.31607 20.5587 4 19.7957 4 19V11C4 10.2044 4.31607 9.44129 4.87868 8.87868Z" fill="currentColor"/>
</svg>
