<svg width="24" height="25" viewBox="0 0 24 25" fill="none" xmlns="http://www.w3.org/2000/svg">
<path fill-rule="evenodd" clip-rule="evenodd" d="M6.97872 7.04172C10.1369 4.80173 14.6947 4.99268 17.596 7.46693L6.97872 7.04172ZM17.596 7.46693C20.4502 9.9021 20.8093 13.7718 18.5023 16.5712C16.1504 19.425 11.7101 20.3354 8.13675 18.6006C7.93653 18.5034 7.7096 18.4758 7.49191 18.5221L4.50139 19.1584L5.2487 16.9164C5.34701 16.6215 5.30256 16.2976 5.12842 16.04C3.12975 13.0842 3.86507 9.25123 6.97872 7.04172M5.82147 5.41053C9.71524 2.64867 15.2853 2.86771 18.8939 5.94531C22.5496 9.06415 23.0707 14.1726 20.0457 17.8432C17.1379 21.3716 11.8714 22.4565 7.58154 20.5478L3.20813 21.4783C2.85732 21.5529 2.49341 21.434 2.25441 21.1666C2.0154 20.8991 1.93792 20.5242 2.05133 20.184L3.20102 16.7349C0.902056 12.8841 2.0244 8.10488 5.82147 5.41053ZM9.41421 8.50018L8 9.9144L10.5 12.4144L8 14.9144L9.41421 16.3286L11.9142 13.8286L14.4142 16.3286L15.8284 14.9144L13.3284 12.4144L15.8284 9.9144L14.4142 8.50018L11.9142 11.0002L9.41421 8.50018Z" fill="#252525"/>
</svg>
