<svg width="24" height="25" viewBox="0 0 24 25" fill="none" xmlns="http://www.w3.org/2000/svg">
<path fill-rule="evenodd" clip-rule="evenodd" d="M12 2.5C10.6739 2.5 9.40215 3.02678 8.46447 3.96447C7.52678 4.90215 7 6.17392 7 7.5C7 8.82608 7.52678 10.0979 8.46447 11.0355C9.40215 11.9732 10.6739 12.5 12 12.5C13.3261 12.5 14.5979 11.9732 15.5355 11.0355C16.4732 10.0979 17 8.82608 17 7.5C17 6.17392 16.4732 4.90215 15.5355 3.96447C14.5979 3.02678 13.3261 2.5 12 2.5ZM9.87868 5.37868C10.4413 4.81607 11.2044 4.5 12 4.5C12.7956 4.5 13.5587 4.81607 14.1213 5.37868C14.6839 5.94129 15 6.70435 15 7.5C15 8.29565 14.6839 9.05871 14.1213 9.62132C13.5587 10.1839 12.7956 10.5 12 10.5C11.2044 10.5 10.4413 10.1839 9.87868 9.62132C9.31607 9.05871 9 8.29565 9 7.5C9 6.70435 9.31607 5.94129 9.87868 5.37868ZM7.87868 17.3787C8.44129 16.8161 9.20435 16.5 10 16.5H14C14.2615 16.5 14.5157 16.5338 14.7584 16.5963L15.7267 16.846L16.226 14.9093L15.2576 14.6597C14.8563 14.5562 14.4345 14.5 14 14.5H10C8.67392 14.5 7.40215 15.0268 6.46447 15.9645C5.52678 16.9021 5 18.1739 5 19.5V22.5H7V19.5C7 18.7043 7.31607 17.9413 7.87868 17.3787ZM20 15.5V20.5H18V15.5H20ZM20 23.51V21.5H18V23.51H20Z" fill="#252525"/>
</svg>
