<svg width="24" height="25" viewBox="0 0 24 25" fill="none" xmlns="http://www.w3.org/2000/svg">
<path fill-rule="evenodd" clip-rule="evenodd" d="M3.88826 2.97405L3.00015 2.08594L1.58594 3.50015L2.55378 4.46799C2.2023 5.06337 2 5.75839 2 6.50012V18.5001C2 19.561 2.42143 20.5784 3.17157 21.3286C3.92172 22.0787 4.93913 22.5001 6 22.5001L17.9985 22.5001L16.6006 20.5001H16.6019L18 22.5001C18.5325 22.5007 19.0597 22.3947 19.5506 22.1884C19.7168 22.1186 19.8777 22.0377 20.0323 21.9465L21.0002 22.9144L22.4144 21.5002L21.5278 20.6136L21.5581 20.5825L20.1274 19.185L20.1135 19.1993L5.42227 4.50806L5.30262 4.38841L3.88826 2.97405ZM4.06754 5.98175C4.02346 6.14697 4 6.32069 4 6.50012V14.0859L7.29289 10.793L7.30661 10.7796C7.58395 10.5127 7.89031 10.2933 8.21869 10.1329L4.06754 5.98175ZM15.3028 17.217C15.2995 17.2138 15.2962 17.2105 15.2929 17.2072L11.9931 13.9075L16.6019 20.5001H18L18.0015 20.5001C18.1764 20.5004 18.3502 20.4776 18.5184 20.4326L15.3028 17.217ZM16.6006 20.5001L11.9906 13.9049L10.3003 12.2147C9.98903 11.9175 9.71184 11.8304 9.5 11.8304C9.28816 11.8304 9.01097 11.9175 8.69967 12.2147L4 16.9143V18.5001C4 19.0306 4.21071 19.5393 4.58579 19.9143C4.96086 20.2894 5.46957 20.5001 6 20.5001H16.6006Z" fill="#252525"/>
<path d="M6 2.50012H18C19.0609 2.50012 20.0783 2.92155 20.8284 3.67169C21.5786 4.42184 22 5.43926 22 6.50012V16.0854V16.5001V16.9148V18.5001H20V16.9139L17.3006 14.2145C16.9573 13.8864 16.6548 13.812 16.4241 13.8337L15.4285 13.9274L15.2412 11.9362L16.2368 11.8425C17.1527 11.7563 18.0101 12.121 18.6942 12.7798L18.7076 12.793L20 14.0854V6.50012C20 5.96969 19.7893 5.46098 19.4142 5.08591C19.0391 4.71084 18.5304 4.50012 18 4.50012H6V2.50012Z" fill="#252525"/>
<path d="M14 8.50012C14 7.94784 14.4477 7.50012 15 7.50012H15.01C15.5623 7.50012 16.01 7.94784 16.01 8.50012C16.01 9.05241 15.5623 9.50012 15.01 9.50012H15C14.4477 9.50012 14 9.05241 14 8.50012Z" fill="#252525"/>
</svg>
