<svg width="24" height="25" viewBox="0 0 24 25" fill="none" xmlns="http://www.w3.org/2000/svg">
<path d="M10 7.5C10.5523 7.5 11 7.94772 11 8.5V8.51C11 9.06228 10.5523 9.51 10 9.51C9.44772 9.51 9 9.06228 9 8.51V8.5C9 7.94772 9.44772 7.5 10 7.5Z" fill="#252525"/>
<path d="M15 8.5C15 7.94772 14.5523 7.5 14 7.5C13.4477 7.5 13 7.94772 13 8.5V8.51C13 9.06228 13.4477 9.51 14 9.51C14.5523 9.51 15 9.06228 15 8.51V8.5Z" fill="#252525"/>
<path fill-rule="evenodd" clip-rule="evenodd" d="M13 1.5V3.5H16C16.7956 3.5 17.5587 3.81607 18.1213 4.37868C18.6839 4.94129 19 5.70435 19 6.5V10.5C19 11.2957 18.6839 12.0587 18.1213 12.6213C17.5587 13.1839 16.7957 13.5 16 13.5V13.8821L20.3415 16.0528L19.4471 17.8417L16 16.1181V22.5H14V19.5H10V22.5H8V16.118L4.55263 17.8417L3.6582 16.0528L8 13.8819V13.5C7.20435 13.5 6.44129 13.1839 5.87868 12.6213C5.31607 12.0587 5 11.2956 5 10.5V6.5C5 5.70435 5.31607 4.94129 5.87868 4.37868C6.44129 3.81607 7.20435 3.5 8 3.5H11V1.5H13ZM10 17.5H14V15.1181V14.9472V14.2636V13.5H10V14.2643V14.9472V15.118V17.5ZM16.7071 11.2071C16.5196 11.3946 16.2652 11.5 16 11.5H8C7.73478 11.5 7.48043 11.3946 7.29289 11.2071C7.10536 11.0196 7 10.7652 7 10.5V6.5C7 6.23478 7.10536 5.98043 7.29289 5.79289C7.48043 5.60536 7.73478 5.5 8 5.5H16C16.2652 5.5 16.5196 5.60536 16.7071 5.79289C16.8946 5.98043 17 6.23478 17 6.5V10.5C17 10.7652 16.8946 11.0196 16.7071 11.2071Z" fill="#252525"/>
</svg>
