<svg width="16" height="16" viewBox="0 0 16 16" fill="none" xmlns="http://www.w3.org/2000/svg">
<path fill-rule="evenodd" clip-rule="evenodd" d="M8.66699 1.33325H9.66699C10.8163 1.33325 11.9185 1.7898 12.7311 2.60246C13.4648 3.33618 13.9083 4.30593 13.9875 5.33325H14.0003V6.66659H13.8834C13.6995 7.44183 13.3037 8.15814 12.7311 8.73071C12.3607 9.10115 11.9301 9.39758 11.4623 9.61052L11.8171 10.675C11.8778 10.6694 11.9389 10.6666 12.0003 10.6666C12.5308 10.6666 13.0395 10.8773 13.4145 11.2524C13.7896 11.6274 14.0003 12.1362 14.0003 12.6666C14.0003 13.197 13.7896 13.7057 13.4145 14.0808C13.0395 14.4559 12.5308 14.6666 12.0003 14.6666C11.4699 14.6666 10.9612 14.4559 10.5861 14.0808C10.211 13.7057 10.0003 13.197 10.0003 12.6666C10.0003 12.1362 10.211 11.6274 10.5861 11.2524C10.5906 11.2479 10.5951 11.2434 10.5997 11.2389L10.1766 9.96986C10.0083 9.98979 9.83819 9.99992 9.66699 9.99992H7.88374C7.64237 9.99995 7.4025 9.98126 7.16615 9.9445L6.73458 11.2392L6.74787 11.2524C7.12294 11.6274 7.33366 12.1362 7.33366 12.6666C7.33366 13.197 7.12294 13.7057 6.74787 14.0808C6.3728 14.4559 5.86409 14.6666 5.33366 14.6666C4.80323 14.6666 4.29452 14.4559 3.91945 14.0808C3.54437 13.7057 3.33366 13.197 3.33366 12.6666C3.33366 12.1362 3.54437 11.6274 3.91945 11.2524C4.29452 10.8773 4.80323 10.6666 5.33366 10.6666C5.39519 10.6666 5.45642 10.6694 5.51719 10.675L5.89107 9.55337C5.6341 9.43208 5.38748 9.28697 5.15462 9.11914C4.3599 8.54638 3.76557 7.73805 3.45586 6.8087L3.4085 6.66659H3.33366V6.44203L2.51979 3.99992H0.666992V2.66659H3.48086L4.36957 5.33325H8.66699V1.33325ZM4.82809 6.66659C5.06646 7.21277 5.44778 7.68689 5.93419 8.03746C6.50185 8.44657 7.18385 8.66668 7.88357 8.66659H9.66699C10.4626 8.66659 11.2257 8.35051 11.7883 7.78791C12.1077 7.4685 12.3477 7.08449 12.4954 6.66659H4.82809ZM12.6484 5.33325H10.0003V2.68515C10.6733 2.76038 11.3048 3.06179 11.7883 3.54527C12.2718 4.02874 12.5732 4.66025 12.6484 5.33325ZM4.86225 12.1952C4.98728 12.0702 5.15685 11.9999 5.33366 11.9999C5.51047 11.9999 5.68004 12.0702 5.80506 12.1952C5.93009 12.3202 6.00033 12.4898 6.00033 12.6666C6.00033 12.8434 5.93009 13.013 5.80506 13.138C5.68004 13.263 5.51047 13.3333 5.33366 13.3333C5.15685 13.3333 4.98728 13.263 4.86225 13.138C4.73723 13.013 4.66699 12.8434 4.66699 12.6666C4.66699 12.4898 4.73723 12.3202 4.86225 12.1952ZM11.5289 12.1952C11.6539 12.0702 11.8235 11.9999 12.0003 11.9999C12.1771 11.9999 12.3467 12.0702 12.4717 12.1952C12.5968 12.3202 12.667 12.4898 12.667 12.6666C12.667 12.8434 12.5968 13.013 12.4717 13.138C12.3467 13.263 12.1771 13.3333 12.0003 13.3333C11.8235 13.3333 11.6539 13.263 11.5289 13.138C11.4039 13.013 11.3337 12.8434 11.3337 12.6666C11.3337 12.4898 11.4039 12.3202 11.5289 12.1952Z" fill="currentColor"/>
</svg>
