<svg width="56" height="56" viewBox="0 0 56 56" fill="none" xmlns="http://www.w3.org/2000/svg">
<path d="M0 28C0 12.536 12.536 0 28 0C43.464 0 56 12.536 56 28C56 43.464 43.464 56 28 56C12.536 56 0 43.464 0 28Z" fill="#CC007A"/>
<path fill-rule="evenodd" clip-rule="evenodd" d="M22.0197 18.0186C21.1045 17.921 20.1791 18.0139 19.3016 18.2915C18.4241 18.5691 17.6136 19.0254 16.9211 19.6316C16.2287 20.2379 15.6692 20.9809 15.278 21.814C14.8868 22.647 14.6724 23.5521 14.6481 24.4721C14.6239 25.3921 14.7904 26.3072 15.1372 27.1597C15.484 28.0122 16.0036 28.7837 16.6632 29.4255L16.6737 29.4358L28.0008 40.6543L39.5673 29.1988C40.1111 28.6078 40.5443 27.9226 40.8451 27.176C41.188 26.3249 41.3514 25.4123 41.3253 24.4952C41.2993 23.5781 41.0842 22.6763 40.6935 21.8461C40.3028 21.016 39.745 20.2754 39.055 19.6708C38.365 19.0661 37.5576 18.6104 36.6833 18.3321C35.809 18.0539 34.8868 17.9591 33.9742 18.0536C33.0616 18.1482 32.1784 18.4301 31.3797 18.8818C30.5811 19.3334 29.8843 19.945 29.3329 20.6783L27.9931 22.4602L26.6632 20.6709C26.1142 19.9322 25.4182 19.3152 24.619 18.8587C23.8198 18.4023 22.9348 18.1162 22.0197 18.0186ZM41.9624 31.5182L42.8578 30.6314L42.7677 30.5404C43.2406 29.8857 43.6337 29.1745 43.937 28.4215C44.4512 27.145 44.6965 25.7761 44.6573 24.4004C44.6182 23.0248 44.2955 21.672 43.7096 20.4268C43.1236 19.1816 42.2869 18.0707 41.2518 17.1638C40.2168 16.2568 39.0056 15.5732 37.6943 15.1558C36.3829 14.7384 34.9995 14.5962 33.6306 14.7381C32.2617 14.8799 30.9368 15.3028 29.7389 15.9802C29.1177 16.3315 28.5376 16.7473 28.0077 17.2197C27.4772 16.7415 26.8957 16.3203 26.2722 15.9643C25.0735 15.2796 23.746 14.8505 22.3732 14.7041C21.0005 14.5576 19.6123 14.697 18.2961 15.1134C16.9799 15.5298 15.7642 16.2143 14.7255 17.1236C13.6868 18.033 12.8476 19.1475 12.2608 20.3971C11.674 21.6467 11.3523 23.0043 11.316 24.3843C11.2796 25.7644 11.5294 27.137 12.0496 28.4157C12.5688 29.6921 13.3462 30.8474 14.333 31.8091L28.0008 45.3457L40.4796 32.9868L41.6687 31.819C41.7688 31.7207 41.8667 31.6204 41.9624 31.5182Z" fill="white"/>
</svg>
