<svg width="16" height="16" viewBox="0 0 16 16" fill="none" xmlns="http://www.w3.org/2000/svg">
<path fill-rule="evenodd" clip-rule="evenodd" d="M4.66634 3.99992V3.33325C4.66634 2.80282 4.87706 2.29411 5.25213 1.91904C5.6272 1.54397 6.13591 1.33325 6.66634 1.33325H9.33301C9.86344 1.33325 10.3721 1.54397 10.7472 1.91904C11.1223 2.29411 11.333 2.80282 11.333 3.33325V3.99992H12.6663C13.1968 3.99992 13.7055 4.21063 14.0806 4.58571C14.4556 4.96078 14.6663 5.46949 14.6663 5.99992V11.9999C14.6663 12.5304 14.4556 13.0391 14.0806 13.4141C13.7055 13.7892 13.1968 13.9999 12.6663 13.9999H3.33301C2.80257 13.9999 2.29387 13.7892 1.91879 13.4141C1.54372 13.0391 1.33301 12.5304 1.33301 11.9999V5.99992C1.33301 5.46949 1.54372 4.96078 1.91879 4.58571C2.29387 4.21063 2.80257 3.99992 3.33301 3.99992H4.66634ZM6.19494 2.86185C6.31996 2.73682 6.48953 2.66659 6.66634 2.66659H9.33301C9.50982 2.66659 9.67939 2.73682 9.80441 2.86185C9.92944 2.98687 9.99967 3.15644 9.99967 3.33325V3.99992H5.99967V3.33325C5.99967 3.15644 6.06991 2.98687 6.19494 2.86185ZM3.33301 5.33325C3.1562 5.33325 2.98663 5.40349 2.8616 5.52851C2.73658 5.65354 2.66634 5.82311 2.66634 5.99992V11.9999C2.66634 12.1767 2.73658 12.3463 2.8616 12.4713C2.98663 12.5963 3.1562 12.6666 3.33301 12.6666H12.6663C12.8432 12.6666 13.0127 12.5963 13.1377 12.4713C13.2628 12.3463 13.333 12.1767 13.333 11.9999V5.99992C13.333 5.82311 13.2628 5.65354 13.1377 5.52851C13.0127 5.40349 12.8432 5.33325 12.6663 5.33325H3.33301Z" fill="currentColor"/>
</svg>
