<svg width="16" height="16" viewBox="0 0 16 16" fill="none" xmlns="http://www.w3.org/2000/svg">
<path fill-rule="evenodd" clip-rule="evenodd" d="M8 4.66667C7.29276 4.66667 6.61448 4.94762 6.11438 5.44772C5.61428 5.94781 5.33333 6.62609 5.33333 7.33333C5.33333 8.04058 5.61428 8.71885 6.11438 9.21895C6.61448 9.71905 7.29276 10 8 10C8.70724 10 9.38552 9.71905 9.88562 9.21895C10.3857 8.71885 10.6667 8.04058 10.6667 7.33333C10.6667 6.62609 10.3857 5.94781 9.88562 5.44772C9.38552 4.94762 8.70724 4.66667 8 4.66667ZM7.05719 6.39052C7.30724 6.14048 7.64638 6 8 6C8.35362 6 8.69276 6.14048 8.94281 6.39052C9.19286 6.64057 9.33333 6.97971 9.33333 7.33333C9.33333 7.68696 9.19286 8.02609 8.94281 8.27614C8.69276 8.52619 8.35362 8.66667 8 8.66667C7.64638 8.66667 7.30724 8.52619 7.05719 8.27614C6.80714 8.02609 6.66667 7.68696 6.66667 7.33333C6.66667 6.97971 6.80714 6.64057 7.05719 6.39052Z" fill="currentColor"/>
<path fill-rule="evenodd" clip-rule="evenodd" d="M8 1.3335C6.81333 1.3335 5.6533 1.68538 4.66661 2.34466C3.67993 3.00393 2.91089 3.94099 2.45676 5.03732C2.00262 6.13366 1.88378 7.34005 2.11527 8.50392C2.34675 9.6678 2.91824 10.737 3.75732 11.5761L6.58684 14.4049C6.96185 14.7796 7.47025 14.99 8.00034 14.99C8.53042 14.99 9.03906 14.7793 9.41407 14.4047L12.2428 11.576C13.0818 10.7369 13.6532 9.6678 13.8847 8.50392C14.1162 7.34005 13.9974 6.13366 13.5432 5.03732C13.0891 3.94099 12.3201 3.00393 11.3334 2.34466C10.3467 1.68538 9.18668 1.3335 8 1.3335ZM5.40737 3.45329C6.17479 2.94052 7.07703 2.66683 8 2.66683C8.92297 2.66683 9.82521 2.94052 10.5926 3.45329C11.3601 3.96606 11.9582 4.69488 12.3114 5.54758C12.6646 6.40029 12.7571 7.33859 12.577 8.24383C12.397 9.14906 11.9525 9.98059 11.2999 10.6332L8.4715 13.4617C8.3465 13.5865 8.17703 13.6567 8.00034 13.6567C7.82364 13.6567 7.65417 13.5865 7.52917 13.4617L4.70002 10.6332C4.04743 9.98053 3.60303 9.14904 3.42299 8.24383C3.24294 7.33859 3.33537 6.40029 3.68859 5.54758C4.0418 4.69488 4.63994 3.96606 5.40737 3.45329Z" fill="currentColor"/>
</svg>
