<svg width="16" height="16" viewBox="0 0 16 16" fill="none" xmlns="http://www.w3.org/2000/svg">
<path fill-rule="evenodd" clip-rule="evenodd" d="M3.25213 1.91904C3.6272 1.54397 4.13591 1.33325 4.66634 1.33325C5.19677 1.33325 5.70548 1.54397 6.08055 1.91904C6.45563 2.29411 6.66634 2.80282 6.66634 3.33325C6.66634 3.86369 6.45563 4.37239 6.08055 4.74747C5.70548 5.12254 5.19677 5.33325 4.66634 5.33325C4.13591 5.33325 3.6272 5.12254 3.25213 4.74747C2.87705 4.37239 2.66634 3.86368 2.66634 3.33325C2.66634 2.80282 2.87705 2.29411 3.25213 1.91904ZM4.66634 2.66659C4.48953 2.66659 4.31996 2.73682 4.19494 2.86185C4.06991 2.98687 3.99967 3.15644 3.99967 3.33325C3.99967 3.51006 4.06991 3.67963 4.19494 3.80466C4.31996 3.92968 4.48953 3.99992 4.66634 3.99992C4.84315 3.99992 5.01272 3.92968 5.13775 3.80466C5.26277 3.67963 5.33301 3.51006 5.33301 3.33325C5.33301 3.15644 5.26277 2.98687 5.13775 2.86185C5.01272 2.73682 4.84315 2.66659 4.66634 2.66659Z" fill="currentColor"/>
<path fill-rule="evenodd" clip-rule="evenodd" d="M9.91879 1.91904C10.2939 1.54397 10.8026 1.33325 11.333 1.33325C11.8634 1.33325 12.3721 1.54397 12.7472 1.91904C13.1223 2.29411 13.333 2.80282 13.333 3.33325C13.333 3.86369 13.1223 4.37239 12.7472 4.74747C12.3721 5.12254 11.8634 5.33325 11.333 5.33325C10.8026 5.33325 10.2939 5.12254 9.91879 4.74747C9.54372 4.37239 9.33301 3.86369 9.33301 3.33325C9.33301 2.80282 9.54372 2.29411 9.91879 1.91904ZM11.333 2.66659C11.1562 2.66659 10.9866 2.73682 10.8616 2.86185C10.7366 2.98687 10.6663 3.15644 10.6663 3.33325C10.6663 3.51006 10.7366 3.67963 10.8616 3.80466C10.9866 3.92968 11.1562 3.99992 11.333 3.99992C11.5098 3.99992 11.6794 3.92968 11.8044 3.80466C11.9294 3.67963 11.9997 3.51006 11.9997 3.33325C11.9997 3.15644 11.9294 2.98687 11.8044 2.86185C11.6794 2.73682 11.5098 2.66659 11.333 2.66659Z" fill="currentColor"/>
<path fill-rule="evenodd" clip-rule="evenodd" d="M7.99967 6.66659C7.46924 6.66659 6.96053 6.8773 6.58546 7.25237C6.21039 7.62744 5.99967 8.13615 5.99967 8.66659C5.99967 9.19702 6.21039 9.70573 6.58546 10.0808C6.96053 10.4559 7.46924 10.6666 7.99967 10.6666C8.53011 10.6666 9.03882 10.4559 9.41389 10.0808C9.78896 9.70573 9.99967 9.19702 9.99967 8.66659C9.99967 8.13615 9.78896 7.62744 9.41389 7.25237C9.03882 6.8773 8.53011 6.66659 7.99967 6.66659ZM7.52827 8.19518C7.6533 8.07016 7.82286 7.99992 7.99967 7.99992C8.17649 7.99992 8.34605 8.07016 8.47108 8.19518C8.5961 8.32021 8.66634 8.48977 8.66634 8.66659C8.66634 8.8434 8.5961 9.01297 8.47108 9.13799C8.34605 9.26301 8.17649 9.33325 7.99967 9.33325C7.82286 9.33325 7.6533 9.26301 7.52827 9.13799C7.40325 9.01297 7.33301 8.8434 7.33301 8.66659C7.33301 8.48977 7.40325 8.32021 7.52827 8.19518Z" fill="currentColor"/>
<path d="M6.19494 12.8618C6.31996 12.7368 6.48953 12.6666 6.66634 12.6666H9.33301C9.50982 12.6666 9.67939 12.7368 9.80441 12.8618C9.92944 12.9869 9.99967 13.1564 9.99967 13.3333V14.6666H11.333V13.3333C11.333 12.8028 11.1223 12.2941 10.7472 11.919C10.3721 11.544 9.86344 11.3333 9.33301 11.3333H6.66634C6.13591 11.3333 5.6272 11.544 5.25213 11.919C4.87706 12.2941 4.66634 12.8028 4.66634 13.3333V14.6666H5.99967V13.3333C5.99967 13.1564 6.06991 12.9869 6.19494 12.8618Z" fill="currentColor"/>
<path d="M12.6663 5.99992H10.6663V7.33325H12.6663C12.8432 7.33325 13.0127 7.40349 13.1377 7.52851C13.2628 7.65354 13.333 7.82311 13.333 7.99992V9.33325H14.6663V7.99992C14.6663 7.46949 14.4556 6.96078 14.0806 6.58571C13.7055 6.21063 13.1968 5.99992 12.6663 5.99992Z" fill="currentColor"/>
<path d="M2.8616 7.52851C2.98663 7.40349 3.1562 7.33325 3.33301 7.33325H5.33301V5.99992H3.33301C2.80257 5.99992 2.29387 6.21063 1.91879 6.58571C1.54372 6.96078 1.33301 7.46949 1.33301 7.99992V9.33325H2.66634V7.99992C2.66634 7.82311 2.73658 7.65354 2.8616 7.52851Z" fill="currentColor"/>
</svg>
