<svg width="14" height="14" viewBox="0 0 14 14" fill="none" xmlns="http://www.w3.org/2000/svg">
<path fill-rule="evenodd" clip-rule="evenodd" d="M6.73679 0.387155C6.90449 0.315284 7.09431 0.315284 7.26201 0.387155L12.5414 2.64977L12.0162 3.87529L6.9994 1.72523L1.98258 3.87529L1.45736 2.64977L6.73679 0.387155ZM0.999674 4.99992H0.333008V6.33325H0.999674V12.3333H0.333008V13.6666H0.999674H2.33301H11.6663H12.9997H13.6663V12.3333H12.9997V6.33325H13.6663V4.99992H12.9997H11.6663H2.33301H0.999674ZM11.6663 6.33325V12.3333H2.33301V6.33325H11.6663ZM4.99967 10.9999V7.66659H3.66634V10.9999H4.99967ZM7.66634 7.66659V10.9999H6.33301V7.66659H7.66634ZM10.333 10.9999V7.66659H8.99967V10.9999H10.333Z" fill="currentColor"/>
</svg>
