<svg width="24" height="24" viewBox="0 0 24 24" fill="none" xmlns="http://www.w3.org/2000/svg">
<path fill-rule="evenodd" clip-rule="evenodd" d="M6.97872 6.54153C10.1369 4.30155 14.6946 4.49249 17.5959 6.96671L6.97872 6.54153ZM17.5959 6.96671C19.0528 8.20982 19.8477 9.81741 19.9909 11.4456L20.0785 12.4417L22.0708 12.2665L21.9832 11.2704C21.7924 9.10064 20.7351 7.01613 18.8941 5.44527C15.2855 2.36767 9.71524 2.14848 5.82147 4.91034C2.0244 7.60469 0.902056 12.3839 3.20102 16.2347L2.05133 19.6838C1.93792 20.024 2.0154 20.3989 2.25441 20.6664C2.49341 20.9338 2.85732 21.0527 3.20813 20.9781L7.58155 20.0476C10.0641 21.1523 12.8533 21.2495 15.3199 20.474L16.2739 20.174L15.6741 18.2661L14.7201 18.566C12.6107 19.2292 10.2161 19.1096 8.13665 18.1003C7.93646 18.0032 7.70957 17.9756 7.49191 18.0219L4.50139 18.6582L5.2487 16.4162C5.34701 16.1213 5.30256 15.7974 5.12842 15.5398C3.12975 12.584 3.86507 8.75104 6.97872 6.54153" fill="#00E1FD"/>
<path fill-rule="evenodd" clip-rule="evenodd" d="M19 21C19.5523 21 20 21.4477 20 22V22.01C20 22.5623 19.5523 23.01 19 23.01C18.4477 23.01 18 22.5623 18 22.01V22C18 21.4477 18.4477 21 19 21Z" fill="#00E1FD"/>
<path fill-rule="evenodd" clip-rule="evenodd" d="M18.4266 14.0581C19.0863 13.9262 19.7712 14.0213 20.3699 14.328L20.3735 14.3298C20.9705 14.6387 21.4466 15.1388 21.7256 15.7503C22.0046 16.3617 22.0705 17.0491 21.9126 17.7024C21.7547 18.3557 21.3822 18.9372 20.8548 19.3537C20.3273 19.7703 19.6753 19.9978 19.0032 20L18.0032 20.0032L17.9968 18.0032L18.9968 18C19.2213 17.9993 19.4391 17.9233 19.6152 17.7841C19.7914 17.645 19.9158 17.4508 19.9686 17.2326C20.0213 17.0144 19.9993 16.7848 19.9061 16.5806C19.8132 16.377 19.6548 16.2103 19.4563 16.1071C19.2598 16.007 19.0353 15.976 18.819 16.0193C18.6021 16.0627 18.4062 16.1782 18.2633 16.3471L17.6172 17.1103L16.0907 15.8182L16.7367 15.0549C17.1714 14.5414 17.767 14.1901 18.4266 14.0581Z" fill="#00E1FD"/>
</svg>
