<svg width="9" height="12" viewBox="0 0 9 12" fill="none" xmlns="http://www.w3.org/2000/svg">
<path fill-rule="evenodd" clip-rule="evenodd" d="M4 0C3.64638 0 3.30724 0.140476 3.05719 0.390524C2.80714 0.640573 2.66667 0.979711 2.66667 1.33333C2.66667 1.68696 2.80714 2.02609 3.05719 2.27614C3.30724 2.52619 3.64638 2.66667 4 2.66667C4.35362 2.66667 4.69276 2.52619 4.94281 2.27614C5.19286 2.02609 5.33333 1.68696 5.33333 1.33333C5.33333 0.979711 5.19286 0.640573 4.94281 0.390524C4.69276 0.140476 4.35362 0 4 0ZM5.93744 5.11975L2.66667 2.66667V8.94281L4.39052 10.6667H0V12H7.60948L4 8.39052V5.33333L6.06256 6.88025L8.27614 4.66667L7.33333 3.72386L5.93744 5.11975Z" fill="currentColor"/>
</svg>
