<svg width="16" height="16" viewBox="0 0 16 16" fill="none" xmlns="http://www.w3.org/2000/svg">
<g clip-path="url(#clip0_264_13615)">
<path fill-rule="evenodd" clip-rule="evenodd" d="M15.3331 5.54857L7.99981 2.61523L-0.461914 5.99992L3.33301 7.51789V10.6666C3.33301 11.5774 4.04035 12.2607 4.87311 12.6771C5.73705 13.109 6.86199 13.3332 7.99967 13.3332C9.13735 13.3332 10.2623 13.109 11.1262 12.6771C11.959 12.2607 12.6663 11.5774 12.6663 10.6666V7.518L13.9998 6.98461V10.6666H15.3331V5.54857ZM11.333 8.05133L7.99981 9.38461L4.66634 8.05123V10.6666C4.66634 10.8166 4.80186 11.1507 5.46939 11.4845C6.10574 11.8027 7.01562 11.9999 7.99967 11.9999C8.98373 11.9999 9.89361 11.8027 10.53 11.4845C11.1975 11.1507 11.333 10.8166 11.333 10.6666V8.05133ZM7.99981 7.94857L12.8714 5.99992L7.99981 4.05128L3.1282 5.99992L7.99981 7.94857Z" fill="currentColor"/>
</g>
<defs>
<clipPath id="clip0_264_13615">
<rect width="16" height="16" fill="white"/>
</clipPath>
</defs>
</svg>
