<svg width="16" height="17" viewBox="0 0 16 17" fill="none" xmlns="http://www.w3.org/2000/svg">
<g clip-path="url(#clip0_2265_13503)">
<path fill-rule="evenodd" clip-rule="evenodd" d="M7.05816 7.55723C7.30821 7.30718 7.64735 7.16671 8.00097 7.16671C8.35459 7.16671 8.69373 7.30718 8.94378 7.55723C9.19382 7.80728 9.3343 8.14642 9.3343 8.50004C9.3343 8.85366 9.19382 9.1928 8.94378 9.44285C8.69373 9.6929 8.35459 9.83337 8.00097 9.83337C7.64735 9.83337 7.30821 9.6929 7.05816 9.44285C6.80811 9.1928 6.66763 8.85366 6.66763 8.50004C6.66763 8.14642 6.80811 7.80728 7.05816 7.55723Z" fill="currentColor"/>
<path fill-rule="evenodd" clip-rule="evenodd" d="M5.77869 5.17416C6.43648 4.73464 7.20984 4.50004 8.00097 4.50004H8.66763V5.83337H8.00097C7.47355 5.83337 6.95798 5.98977 6.51945 6.28279C6.08092 6.5758 5.73912 6.99228 5.53729 7.47955C5.33545 7.96682 5.28265 8.503 5.38554 9.02028C5.48843 9.53756 5.74241 10.0127 6.11535 10.3857C6.48829 10.7586 6.96344 11.0126 7.48073 11.1155C7.99801 11.2184 8.53419 11.1656 9.02146 10.9637C9.50873 10.7619 9.9252 10.4201 10.2182 9.98156C10.5112 9.54303 10.6676 9.02746 10.6676 8.50004V7.83337H12.001V8.50004C12.001 9.29116 11.7664 10.0645 11.3268 10.7223C10.8873 11.3801 10.2626 11.8928 9.5317 12.1956C8.8008 12.4983 7.99653 12.5775 7.22061 12.4232C6.44468 12.2688 5.73195 11.8879 5.17254 11.3285C4.61313 10.7691 4.23217 10.0563 4.07783 9.2804C3.92349 8.50448 4.0027 7.70021 4.30545 6.96931C4.6082 6.2384 5.12089 5.61369 5.77869 5.17416Z" fill="currentColor"/>
<path fill-rule="evenodd" clip-rule="evenodd" d="M4.77218 2.66543C5.98145 1.99663 7.36868 1.72013 8.74196 1.8742L9.40447 1.94852L9.25582 3.27354L8.59331 3.19922C7.49468 3.07596 6.3849 3.29716 5.41749 3.83221C4.45007 4.36725 3.67283 5.18971 3.19327 6.1858C2.71372 7.18189 2.55556 8.30239 2.74066 9.3923C2.92577 10.4822 3.445 11.4877 4.22652 12.2696C5.00804 13.0515 6.01324 13.5712 7.10305 13.7569C8.19287 13.9425 9.31345 13.7849 10.3098 13.3059C11.3061 12.8268 12.129 12.05 12.6645 11.0829C13.2 10.1157 13.4218 9.00605 13.2991 7.90736L13.2251 7.24482L14.5502 7.09683L14.6242 7.75938C14.7776 9.13274 14.5004 10.5198 13.8309 11.7288C13.1615 12.9377 12.133 13.9087 10.8876 14.5075C9.64214 15.1064 8.24141 15.3034 6.87914 15.0713C5.51687 14.8392 4.26038 14.1896 3.28347 13.2122C2.30657 12.2348 1.65754 10.9779 1.42615 9.61555C1.19477 8.25317 1.39247 6.85254 1.99192 5.60743C2.59136 4.36231 3.56291 3.33424 4.77218 2.66543Z" fill="currentColor"/>
<path fill-rule="evenodd" clip-rule="evenodd" d="M12.6676 0.890564V3.83337H15.6104L12.2771 7.16671H9.3343V4.2239L12.6676 0.890564ZM10.6676 4.77618V5.83337H11.7248L12.3915 5.16671H11.3343V4.10952L10.6676 4.77618Z" fill="currentColor"/>
<path fill-rule="evenodd" clip-rule="evenodd" d="M10.9438 6.50004L8.00097 9.44285L7.05816 8.50004L10.001 5.55723L10.9438 6.50004Z" fill="currentColor"/>
</g>
<defs>
<clipPath id="clip0_2265_13503">
<rect width="16" height="16" fill="currentColor" transform="translate(0 0.5)"/>
</clipPath>
</defs>
</svg>