<svg width="40" height="40" viewBox="0 0 40 40" fill="none" xmlns="http://www.w3.org/2000/svg">
<path d="M23 15C22.4477 15 22 15.4477 22 16C22 16.5523 22.4477 17 23 17H23.01C23.5623 17 24.01 16.5523 24.01 16C24.01 15.4477 23.5623 15 23.01 15H23Z" fill="currentColor"/>
<path fill-rule="evenodd" clip-rule="evenodd" d="M30 24.4144V26C30 27.0609 29.5786 28.0783 28.8284 28.8284C28.0783 29.5786 27.0609 30 26 30H14C12.9391 30 11.9217 29.5786 11.1716 28.8284C10.4214 28.0783 10 27.0609 10 26V24.4141L10 24L10 23.5859V14C10 12.9391 10.4214 11.9217 11.1716 11.1716C11.9217 10.4214 12.9391 10 14 10H26C27.0609 10 28.0783 10.4214 28.8284 11.1716C29.5786 11.9217 30 12.9391 30 14V23.5856V24V24.4144ZM12.5858 12.5858C12.9609 12.2107 13.4696 12 14 12H26C26.5304 12 27.0391 12.2107 27.4142 12.5858C27.7893 12.9609 28 13.4696 28 14V21.5856L26.7073 20.2929L26.6935 20.2794C26.0794 19.6885 25.3229 19.3303 24.5002 19.3303C23.6774 19.3303 22.9209 19.6885 22.3068 20.2794L22.293 20.2929L22.0002 20.5858L19.7073 18.2929L19.6935 18.2794C19.0794 17.6885 18.3229 17.3303 17.5002 17.3303C16.6774 17.3303 15.9209 17.6885 15.3068 18.2794L15.293 18.2929L12 21.5859V14C12 13.4696 12.2107 12.9609 12.5858 12.5858ZM23.4144 22L23.6998 21.7146C24.0111 21.4174 24.2883 21.3303 24.5002 21.3303C24.712 21.3303 24.9892 21.4174 25.3005 21.7146L28 24.4141V26C28 26.5304 27.7893 27.0391 27.4142 27.4142C27.0391 27.7893 26.5304 28 26 28H14C13.4696 28 12.9609 27.7893 12.5858 27.4142C12.2107 27.0391 12 26.5304 12 26V24.4144L16.6998 19.7146C17.0111 19.4174 17.2883 19.3303 17.5002 19.3303C17.712 19.3303 17.9892 19.4174 18.3005 19.7146L24.0002 25.4142L25.4144 24L23.4144 22Z" fill="currentColor"/>
</svg>
