<svg width="40" height="40" viewBox="0 0 40 40" fill="none" xmlns="http://www.w3.org/2000/svg">
<path fill-rule="evenodd" clip-rule="evenodd" d="M19 12.0571C18.7348 12.0571 18.4804 12.1655 18.2929 12.3584C18.1054 12.5513 18 12.8129 18 13.0857C18 13.3585 18.1054 13.6201 18.2929 13.813C18.4804 14.0059 18.7348 14.1143 19 14.1143H21C21.2652 14.1143 21.5196 14.0059 21.7071 13.813C21.8946 13.6201 22 13.3585 22 13.0857C22 12.8129 21.8946 12.5513 21.7071 12.3584C21.5196 12.1655 21.2652 12.0571 21 12.0571H19ZM16.8787 10.9038C16.5593 11.2323 16.3193 11.6273 16.1716 12.0571H15C14.2044 12.0571 13.4413 12.3822 12.8787 12.9609C12.3161 13.5396 12 14.3245 12 15.1429V27.4857C12 28.3041 12.3161 29.089 12.8787 29.6676C13.4413 30.2463 14.2044 30.5714 15 30.5714H25C25.7957 30.5714 26.5587 30.2463 27.1213 29.6676C27.6839 29.089 28 28.3041 28 27.4857V15.1429C28 14.3245 27.6839 13.5396 27.1213 12.9609C26.5587 12.3822 25.7956 12.0571 25 12.0571H23.8284C23.6807 11.6273 23.4407 11.2323 23.1213 10.9038C22.5587 10.3251 21.7956 10 21 10H19C18.2044 10 17.4413 10.3251 16.8787 10.9038ZM25 14.1143H23.8284C23.6807 14.5441 23.4407 14.9391 23.1213 15.2676C22.5587 15.8463 21.7956 16.1714 21 16.1714H19C18.2044 16.1714 17.4413 15.8463 16.8787 15.2676C16.5593 14.9391 16.3193 14.5441 16.1716 14.1143H15C14.7348 14.1143 14.4804 14.2227 14.2929 14.4155C14.1054 14.6084 14 14.8701 14 15.1429V27.4857C14 27.7585 14.1054 28.0201 14.2929 28.213C14.4804 28.4059 14.7348 28.5143 15 28.5143H25C25.2652 28.5143 25.5196 28.4059 25.7071 28.213C25.8946 28.0201 26 27.7585 26 27.4857V15.1429C26 14.8701 25.8946 14.6084 25.7071 14.4155C25.5196 14.2227 25.2652 14.1143 25 14.1143ZM17 21.3143C16.4477 21.3143 16 21.7748 16 22.3429C16 22.9109 16.4477 23.3714 17 23.3714H17.01C17.5623 23.3714 18.01 22.9109 18.01 22.3429C18.01 21.7748 17.5623 21.3143 17.01 21.3143H17ZM16 25.4286C16 24.8605 16.4477 24.4 17 24.4H17.01C17.5623 24.4 18.01 24.8605 18.01 25.4286C18.01 25.9966 17.5623 26.4571 17.01 26.4571H17C16.4477 26.4571 16 25.9966 16 25.4286ZM21.7071 26.1559L24.7071 23.0702C25.0976 22.6685 25.0976 22.0172 24.7071 21.6155C24.3166 21.2139 23.6834 21.2139 23.2929 21.6155L21 23.974L20.7071 23.6727C20.3166 23.271 19.6834 23.271 19.2929 23.6727C18.9024 24.0744 18.9024 24.7256 19.2929 25.1273L20.2929 26.1559C20.6834 26.5576 21.3166 26.5576 21.7071 26.1559Z" fill="currentColor"/>
</svg>
