<svg width="40" height="40" viewBox="0 0 40 40" fill="none" xmlns="http://www.w3.org/2000/svg">
<path fill-rule="evenodd" clip-rule="evenodd" d="M20 18C19.2043 18 18.4413 18.3161 17.8787 18.8787C17.3161 19.4413 17 20.2043 17 21C17 21.7957 17.3161 22.5587 17.8787 23.1213C18.4413 23.6839 19.2043 24 20 24C20.7957 24 21.5587 23.6839 22.1213 23.1213C22.6839 22.5587 23 21.7957 23 21C23 20.2043 22.6839 19.4413 22.1213 18.8787C21.5587 18.3161 20.7957 18 20 18ZM19.2929 20.2929C19.4804 20.1054 19.7348 20 20 20C20.2652 20 20.5196 20.1054 20.7071 20.2929C20.8946 20.4804 21 20.7348 21 21C21 21.2652 20.8946 21.5196 20.7071 21.7071C20.5196 21.8946 20.2652 22 20 22C19.7348 22 19.4804 21.8946 19.2929 21.7071C19.1054 21.5196 19 21.2652 19 21C19 20.7348 19.1054 20.4804 19.2929 20.2929Z" fill="currentColor"/>
<path d="M17 13H23V15H17V13Z" fill="currentColor"/>
<path d="M24 25H16V27H24V25Z" fill="currentColor"/>
<path fill-rule="evenodd" clip-rule="evenodd" d="M16 10C14.9391 10 13.9217 10.4214 13.1716 11.1716C12.4214 11.9217 12 12.9391 12 14V26C12 27.0609 12.4214 28.0783 13.1716 28.8284C13.9217 29.5786 14.9391 30 16 30H24C25.0609 30 26.0783 29.5786 26.8284 28.8284C27.5786 28.0783 28 27.0609 28 26V14C28 12.9391 27.5786 11.9217 26.8284 11.1716C26.0783 10.4214 25.0609 10 24 10H16ZM14.5858 12.5858C14.9609 12.2107 15.4696 12 16 12H24C24.5304 12 25.0391 12.2107 25.4142 12.5858C25.7893 12.9609 26 13.4696 26 14V26C26 26.5304 25.7893 27.0391 25.4142 27.4142C25.0391 27.7893 24.5304 28 24 28H16C15.4696 28 14.9609 27.7893 14.5858 27.4142C14.2107 27.0391 14 26.5304 14 26V14C14 13.4696 14.2107 12.9609 14.5858 12.5858Z" fill="currentColor"/>
</svg>
