<svg width="40" height="40" viewBox="0 0 40 40" fill="none" xmlns="http://www.w3.org/2000/svg">
<path fill-rule="evenodd" clip-rule="evenodd" d="M16.9385 12.609C17.9091 12.2069 18.9494 12 20 12C22.1217 12 24.1566 12.8429 25.6569 14.3431C27.1571 15.8434 28 17.8783 28 20C28 22.1217 27.1571 24.1566 25.6569 25.6569C24.1566 27.1571 22.1217 28 20 28C18.9494 28 17.9091 27.7931 16.9385 27.391C15.9679 26.989 15.086 26.3997 14.3431 25.6569C13.6003 24.914 13.011 24.0321 12.609 23.0615C12.2069 22.0909 12 21.0506 12 20C12 18.9494 12.2069 17.9091 12.609 16.9385C13.011 15.9679 13.6003 15.086 14.3431 14.3431C15.086 13.6003 15.9679 13.011 16.9385 12.609ZM20 10C18.6868 10 17.3864 10.2587 16.1732 10.7612C14.9599 11.2638 13.8575 12.0003 12.9289 12.9289C12.0003 13.8575 11.2638 14.9599 10.7612 16.1732C10.2587 17.3864 10 18.6868 10 20C10 21.3132 10.2587 22.6136 10.7612 23.8268C11.2638 25.0401 12.0003 26.1425 12.9289 27.0711C13.8575 27.9997 14.9599 28.7362 16.1732 29.2388C17.3864 29.7413 18.6868 30 20 30C22.6522 30 25.1957 28.9464 27.0711 27.0711C28.9464 25.1957 30 22.6522 30 20C30 17.3478 28.9464 14.8043 27.0711 12.9289C25.1957 11.0536 22.6522 10 20 10ZM18.8943 17.5528C18.4027 16.5696 17.3093 16.25 16.4998 16.25C15.6903 16.25 14.597 16.5696 14.1054 17.5528L13.6582 18.4472L15.4471 19.3416L15.8943 18.4472C15.8964 18.4429 15.922 18.3955 16.035 18.3423C16.1495 18.2885 16.3133 18.25 16.4998 18.25C16.6864 18.25 16.8502 18.2885 16.9647 18.3423C17.0777 18.3955 17.1032 18.4429 17.1054 18.4472L17.5526 19.3416L19.3415 18.4472L18.8943 17.5528ZM23.4998 16.25C24.3093 16.25 25.4027 16.5696 25.8943 17.5528L26.3415 18.4472L24.5526 19.3416L24.1054 18.4472C24.1032 18.4429 24.0777 18.3955 23.9647 18.3423C23.8502 18.2885 23.6864 18.25 23.4998 18.25C23.3133 18.25 23.1495 18.2885 23.035 18.3423C22.922 18.3955 22.8964 18.4429 22.8943 18.4472L22.4471 19.3416L20.6582 18.4472L21.1054 17.5528C21.597 16.5696 22.6903 16.25 23.4998 16.25ZM18.2144 22.3002L17.5145 21.5859L16.0859 22.9856L16.7858 23.6999C17.2048 24.1275 17.7049 24.4672 18.2568 24.6991C18.8087 24.9311 19.4014 25.0505 20.0001 25.0505C20.5988 25.0505 21.1914 24.9311 21.7433 24.6991C22.2953 24.4672 22.7954 24.1275 23.2144 23.6999L23.9142 22.9856L22.4856 21.5859L21.7858 22.3002C21.553 22.5377 21.2752 22.7265 20.9686 22.8553C20.6619 22.9842 20.3327 23.0505 20.0001 23.0505C19.6675 23.0505 19.3382 22.9842 19.0316 22.8553C18.725 22.7265 18.4471 22.5377 18.2144 22.3002Z" fill="currentColor"/>
</svg>
