<svg width="40" height="40" viewBox="0 0 40 40" fill="none" xmlns="http://www.w3.org/2000/svg">
<path fill-rule="evenodd" clip-rule="evenodd" d="M20.383 12.9864C18.4149 12.9066 16.4939 13.4663 14.9778 14.5419C13.4638 15.616 12.4676 17.1213 12.1358 18.7607C11.8045 20.397 12.1494 22.0928 13.1278 23.5399L13.404 23.9484L12.5008 26.6582L15.8272 25.9504L16.1361 26.1004C17.8503 26.9326 19.857 27.1868 21.7769 26.8064C23.6965 26.4261 25.3702 25.4437 26.5016 24.0711C27.63 22.7021 28.1463 21.0366 27.9842 19.3825C27.8221 17.7267 26.9869 16.154 25.5958 14.9674C24.2021 13.7787 22.3511 13.0662 20.383 12.9864ZM13.8206 12.9107C15.7139 11.5675 18.0745 10.8912 20.464 10.9881C22.8536 11.085 25.1398 11.9498 26.8936 13.4457C28.65 14.9438 29.7585 16.9804 29.9747 19.1875C30.1911 21.3963 29.4947 23.5843 28.0449 25.3432C26.5982 27.0984 24.5036 28.3051 22.1655 28.7683C19.9441 29.2084 17.6208 28.9545 15.581 28.0476L9.49805 29.3418L11.2005 24.2344C10.1375 22.4499 9.76718 20.3812 10.1755 18.3639C10.6161 16.1871 11.9251 14.2554 13.8206 12.9107Z" fill="currentColor"/>
</svg>
