<svg width="40" height="40" viewBox="0 0 40 40" fill="none" xmlns="http://www.w3.org/2000/svg">
<path fill-rule="evenodd" clip-rule="evenodd" d="M16.4126 14.0112C15.8635 13.9526 15.3082 14.0083 14.7817 14.1749C14.2552 14.3415 13.7689 14.6152 13.3535 14.979C12.938 15.3427 12.6023 15.7885 12.3676 16.2884C12.1329 16.7882 12.0042 17.3312 11.9897 17.8833C11.9751 18.4353 12.075 18.9843 12.2831 19.4958C12.4912 20.0073 12.8029 20.4702 13.1987 20.8553L13.205 20.8615L20.0013 27.5926L26.9412 20.7193C27.2675 20.3647 27.5274 19.9536 27.7079 19.5056C27.9136 18.995 28.0116 18.4474 27.996 17.8971C27.9803 17.3469 27.8513 16.8058 27.6169 16.3077C27.3825 15.8096 27.0478 15.3653 26.6338 15.0025C26.2198 14.6397 25.7353 14.3662 25.2108 14.1993C24.6862 14.0323 24.1328 13.9754 23.5853 14.0322C23.0377 14.0889 22.5078 14.2581 22.0286 14.5291C21.5495 14.8 21.1314 15.167 20.8005 15.607L19.9966 16.6761L19.1987 15.6025C18.8693 15.1593 18.4517 14.7891 17.9722 14.5152C17.4927 14.2414 16.9617 14.0697 16.4126 14.0112ZM28.3782 22.1109L28.9155 21.5788L28.8614 21.5242C29.1451 21.1314 29.381 20.7047 29.563 20.2529C29.8715 19.487 30.0187 18.6657 29.9952 17.8403C29.9717 17.0149 29.7781 16.2032 29.4265 15.4561C29.0749 14.709 28.5729 14.0424 27.9519 13.4983C27.3308 12.9541 26.6042 12.5439 25.8173 12.2935C25.0305 12.0431 24.2005 11.9577 23.3791 12.0428C22.5578 12.128 21.7629 12.3817 21.0441 12.7881C20.6714 12.9989 20.3233 13.2484 20.0054 13.5318C19.6871 13.2449 19.3382 12.9922 18.9641 12.7786C18.2449 12.3677 17.4484 12.1103 16.6247 12.0224C15.8011 11.9346 14.9682 12.0182 14.1785 12.2681C13.3887 12.5179 12.6593 12.9286 12.0361 13.4742C11.4128 14.0198 10.9093 14.6885 10.5573 15.4383C10.2052 16.188 10.0122 17.0026 9.99036 17.8306C9.96855 18.6586 10.1184 19.4822 10.4305 20.2494C10.7421 21.0153 11.2085 21.7084 11.8006 22.2855L20.0013 30.4074L27.4885 22.9921L28.202 22.2914C28.2621 22.2324 28.3208 22.1723 28.3782 22.1109Z" fill="currentColor"/>
</svg>
