<svg width="16" height="16" viewBox="0 0 16 16" fill="none" xmlns="http://www.w3.org/2000/svg">
<path fill-rule="evenodd" clip-rule="evenodd" d="M7.99967 1.33325C7.1242 1.33325 6.25729 1.50569 5.44845 1.84072C4.63961 2.17575 3.90469 2.66682 3.28563 3.28587C2.66657 3.90493 2.17551 4.63986 1.84048 5.4487C1.50545 6.25753 1.33301 7.12444 1.33301 7.99992C1.33301 8.8754 1.50545 9.7423 1.84048 10.5511C2.17551 11.36 2.66657 12.0949 3.28563 12.714C3.90469 13.333 4.63961 13.8241 5.44845 14.1591C6.25729 14.4941 7.1242 14.6666 7.99967 14.6666C8.87515 14.6666 9.74206 14.4941 10.5509 14.1591C11.3597 13.8241 12.0947 13.333 12.7137 12.714C13.3328 12.0949 13.8238 11.36 14.1589 10.5511C14.4939 9.7423 14.6663 8.8754 14.6663 7.99992C14.6663 7.12444 14.4939 6.25753 14.1589 5.4487C13.8238 4.63986 13.3328 3.90493 12.7137 3.28587C12.0947 2.66682 11.3597 2.17575 10.5509 1.84072C9.74206 1.50569 8.87515 1.33325 7.99967 1.33325ZM5.9587 3.07256C6.60577 2.80454 7.29929 2.66659 7.99967 2.66659C8.70006 2.66659 9.39358 2.80454 10.0407 3.07256C10.6877 3.34059 11.2757 3.73344 11.7709 4.22868C12.2662 4.72393 12.659 5.31187 12.927 5.95894C13.1951 6.60601 13.333 7.29954 13.333 7.99992C13.333 8.7003 13.1951 9.39383 12.927 10.0409C12.659 10.688 12.2662 11.2759 11.7709 11.7712C11.2757 12.2664 10.6877 12.6593 10.0407 12.9273C9.39358 13.1953 8.70006 13.3333 7.99967 13.3333C7.29929 13.3333 6.60577 13.1953 5.9587 12.9273C5.31163 12.6593 4.72368 12.2664 4.22844 11.7712C3.73319 11.2759 3.34034 10.688 3.07232 10.0409C2.80429 9.39383 2.66634 8.7003 2.66634 7.99992C2.66634 7.29954 2.80429 6.60601 3.07232 5.95894C3.34034 5.31187 3.73319 4.72393 4.22844 4.22868C4.72368 3.73344 5.31163 3.34059 5.9587 3.07256ZM9.76347 6.23386C9.53247 5.78313 9.0956 5.45999 8.58301 5.42013V4.66659C8.58301 4.34442 8.32184 4.08325 7.99967 4.08325C7.67751 4.08325 7.41634 4.34442 7.41634 4.66659V5.42318C6.61735 5.49989 6.08301 6.23408 6.08301 6.99992C6.08301 7.80699 6.67954 8.58258 7.55501 8.58258H8.44434C8.55021 8.58258 8.74967 8.70233 8.74967 8.99925C8.74967 9.29524 8.55044 9.41525 8.44434 9.41525H7.55501C7.5475 9.41525 7.54 9.41539 7.5325 9.41568C7.45779 9.41857 7.34727 9.37523 7.27414 9.23253C7.1272 8.94582 6.77566 8.83252 6.48896 8.97946C6.20225 9.12639 6.08894 9.47793 6.23588 9.76464C6.46688 10.2154 6.90374 10.5385 7.41634 10.5784V11.3333C7.41634 11.6554 7.67751 11.9166 7.99967 11.9166C8.32184 11.9166 8.58301 11.6554 8.58301 11.3333V10.5753C9.382 10.4985 9.91634 9.76383 9.91634 8.99925C9.91634 8.19084 9.31981 7.41592 8.44434 7.41592H7.55501C7.44914 7.41592 7.24967 7.29551 7.24967 6.99992C7.24967 6.70259 7.4489 6.58325 7.55501 6.58325H7.99817L7.99967 6.58325L8.00118 6.58325H8.44434C8.45185 6.58325 8.45935 6.58311 8.46685 6.58282C8.54156 6.57993 8.65208 6.62327 8.72521 6.76597C8.87215 7.05268 9.22369 7.16598 9.51039 7.01904C9.7971 6.87211 9.91041 6.52057 9.76347 6.23386Z" fill="#CC007A"/>
</svg>
