<svg width="40" height="40" viewBox="0 0 40 40" fill="none" xmlns="http://www.w3.org/2000/svg">
<path d="M0 20C0 8.95431 8.95431 0 20 0C31.0457 0 40 8.95431 40 20C40 31.0457 31.0457 40 20 40C8.95431 40 0 31.0457 0 20Z" fill="none"/>
<path fill-rule="evenodd" clip-rule="evenodd" d="M21 9V11.0557C23.019 11.2814 24.9135 12.1856 26.364 13.636C27.8144 15.0865 28.7186 16.981 28.9443 19H31V21H28.9443C28.7186 23.019 27.8144 24.9135 26.364 26.364C24.9135 27.8144 23.019 28.7186 21 28.9443V31H19V28.9443C16.981 28.7186 15.0865 27.8144 13.636 26.364C12.1856 24.9135 11.2814 23.019 11.0557 21H9V19H11.0557C11.2814 16.981 12.1856 15.0865 13.636 13.636C15.0865 12.1856 16.981 11.2814 19 11.0557V9H21ZM13 20C13 21.8565 13.7375 23.637 15.0503 24.9497C16.363 26.2625 18.1435 27 20 27C21.8565 27 23.637 26.2625 24.9497 24.9497C26.2625 23.637 27 21.8565 27 20C27 18.1435 26.2625 16.363 24.9497 15.0503C23.637 13.7375 21.8565 13 20 13C18.1435 13 16.363 13.7375 15.0503 15.0503C13.7375 16.363 13 18.1435 13 20ZM20 16C18.9391 16 17.9217 16.4214 17.1716 17.1716C16.4214 17.9217 16 18.9391 16 20C16 21.0609 16.4214 22.0783 17.1716 22.8284C17.9217 23.5786 18.9391 24 20 24C21.0609 24 22.0783 23.5786 22.8284 22.8284C23.5786 22.0783 24 21.0609 24 20C24 18.9391 23.5786 17.9217 22.8284 17.1716C22.0783 16.4214 21.0609 16 20 16ZM18.5858 18.5858C18.9609 18.2107 19.4696 18 20 18C20.5304 18 21.0391 18.2107 21.4142 18.5858C21.7893 18.9609 22 19.4696 22 20C22 20.5304 21.7893 21.0391 21.4142 21.4142C21.0391 21.7893 20.5304 22 20 22C19.4696 22 18.9609 21.7893 18.5858 21.4142C18.2107 21.0391 18 20.5304 18 20C18 19.4696 18.2107 18.9609 18.5858 18.5858Z" fill="currentColor"/>
</svg>
