<svg width="335" height="44" viewBox="0 0 335 44" fill="none" xmlns="http://www.w3.org/2000/svg">
<path d="M0 22C0 9.84974 9.84974 0 22 0H313C325.15 0 335 9.84974 335 22C335 34.1503 325.15 44 313 44H22C9.84973 44 0 34.1503 0 22Z" fill="black"/>
<path d="M132.234 27.3533C131.944 28.0229 131.601 28.6393 131.203 29.206C130.662 29.9786 130.218 30.5133 129.876 30.8103C129.346 31.2977 128.778 31.5474 128.17 31.5616C127.733 31.5616 127.207 31.4373 126.594 31.1853C125.979 30.9345 125.414 30.8103 124.897 30.8103C124.356 30.8103 123.774 30.9345 123.153 31.1853C122.53 31.4373 122.029 31.5687 121.645 31.5817C121.062 31.6065 120.481 31.3498 119.901 30.8103C119.531 30.4873 119.067 29.9336 118.512 29.1492C117.917 28.3116 117.428 27.3403 117.044 26.2329C116.634 25.0368 116.428 23.8786 116.428 22.7572C116.428 21.4728 116.705 20.3649 117.261 19.4365C117.698 18.6908 118.279 18.1026 119.007 17.6708C119.734 17.239 120.52 17.0189 121.367 17.0048C121.83 17.0048 122.437 17.1481 123.192 17.4297C123.945 17.7122 124.428 17.8555 124.64 17.8555C124.799 17.8555 125.335 17.6879 126.246 17.3539C127.106 17.0442 127.833 16.916 128.428 16.9665C130.04 17.0966 131.252 17.7323 132.058 18.8775C130.615 19.7514 129.902 20.9753 129.916 22.5454C129.929 23.7683 130.373 24.786 131.245 25.5941C131.64 25.9691 132.081 26.259 132.572 26.4648C132.466 26.7736 132.353 27.0694 132.234 27.3533ZM128.535 12.8001C128.535 13.7587 128.185 14.6537 127.487 15.4821C126.645 16.4669 125.626 17.0359 124.521 16.9461C124.507 16.8311 124.499 16.7101 124.499 16.5829C124.499 15.6627 124.899 14.6779 125.611 13.8727C125.966 13.465 126.418 13.126 126.966 12.8556C127.512 12.5892 128.029 12.4419 128.515 12.4167C128.53 12.5448 128.535 12.673 128.535 12.8001V12.8001Z" fill="white"/>
<path d="M159.227 28L157.82 24.375H153.242L151.844 28H150.5L154.969 16.5312H156.164L160.602 28H159.227ZM157.422 23.1953L156.086 19.5938C156.055 19.5 156.003 19.3464 155.93 19.1328C155.862 18.9193 155.792 18.6979 155.719 18.4688C155.646 18.2396 155.586 18.0547 155.539 17.9141C155.487 18.1276 155.43 18.3411 155.367 18.5547C155.31 18.763 155.253 18.9583 155.195 19.1406C155.138 19.3177 155.089 19.4688 155.047 19.5938L153.688 23.1953H157.422ZM166.016 19.2812C167.083 19.2812 167.935 19.6484 168.57 20.3828C169.206 21.1172 169.523 22.2214 169.523 23.6953C169.523 24.6693 169.378 25.487 169.086 26.1484C168.794 26.8099 168.383 27.3099 167.852 27.6484C167.326 27.987 166.703 28.1562 165.984 28.1562C165.531 28.1562 165.133 28.0964 164.789 27.9766C164.445 27.8568 164.151 27.6953 163.906 27.4922C163.661 27.2891 163.458 27.0677 163.297 26.8281H163.203C163.219 27.0312 163.237 27.276 163.258 27.5625C163.284 27.849 163.297 28.099 163.297 28.3125V31.8281H161.992V19.4375H163.062L163.234 20.7031H163.297C163.464 20.4427 163.667 20.2057 163.906 19.9922C164.146 19.7734 164.438 19.6016 164.781 19.4766C165.13 19.3464 165.542 19.2812 166.016 19.2812ZM165.789 20.375C165.195 20.375 164.716 20.4896 164.352 20.7188C163.992 20.9479 163.729 21.2917 163.562 21.75C163.396 22.2031 163.307 22.7734 163.297 23.4609V23.7109C163.297 24.4349 163.375 25.0469 163.531 25.5469C163.693 26.0469 163.956 26.4271 164.32 26.6875C164.69 26.9479 165.185 27.0781 165.805 27.0781C166.336 27.0781 166.779 26.9349 167.133 26.6484C167.487 26.362 167.75 25.9635 167.922 25.4531C168.099 24.9375 168.188 24.3464 168.188 23.6797C168.188 22.6693 167.99 21.8672 167.594 21.2734C167.203 20.6745 166.602 20.375 165.789 20.375ZM175.812 19.2812C176.88 19.2812 177.732 19.6484 178.367 20.3828C179.003 21.1172 179.32 22.2214 179.32 23.6953C179.32 24.6693 179.174 25.487 178.883 26.1484C178.591 26.8099 178.18 27.3099 177.648 27.6484C177.122 27.987 176.5 28.1562 175.781 28.1562C175.328 28.1562 174.93 28.0964 174.586 27.9766C174.242 27.8568 173.948 27.6953 173.703 27.4922C173.458 27.2891 173.255 27.0677 173.094 26.8281H173C173.016 27.0312 173.034 27.276 173.055 27.5625C173.081 27.849 173.094 28.099 173.094 28.3125V31.8281H171.789V19.4375H172.859L173.031 20.7031H173.094C173.26 20.4427 173.464 20.2057 173.703 19.9922C173.943 19.7734 174.234 19.6016 174.578 19.4766C174.927 19.3464 175.339 19.2812 175.812 19.2812ZM175.586 20.375C174.992 20.375 174.513 20.4896 174.148 20.7188C173.789 20.9479 173.526 21.2917 173.359 21.75C173.193 22.2031 173.104 22.7734 173.094 23.4609V23.7109C173.094 24.4349 173.172 25.0469 173.328 25.5469C173.49 26.0469 173.753 26.4271 174.117 26.6875C174.487 26.9479 174.982 27.0781 175.602 27.0781C176.133 27.0781 176.576 26.9349 176.93 26.6484C177.284 26.362 177.547 25.9635 177.719 25.4531C177.896 24.9375 177.984 24.3464 177.984 23.6797C177.984 22.6693 177.786 21.8672 177.391 21.2734C177 20.6745 176.398 20.375 175.586 20.375ZM182.891 28H181.586V15.8438H182.891V28ZM188.93 19.2812C189.659 19.2812 190.284 19.4427 190.805 19.7656C191.326 20.0885 191.724 20.5417 192 21.125C192.276 21.7031 192.414 22.3802 192.414 23.1562V23.9609H186.5C186.516 24.9661 186.766 25.7318 187.25 26.2578C187.734 26.7839 188.417 27.0469 189.297 27.0469C189.839 27.0469 190.318 26.9974 190.734 26.8984C191.151 26.7995 191.583 26.6536 192.031 26.4609V27.6016C191.599 27.7943 191.169 27.9349 190.742 28.0234C190.32 28.112 189.82 28.1562 189.242 28.1562C188.419 28.1562 187.701 27.9896 187.086 27.6562C186.477 27.3177 186.003 26.8229 185.664 26.1719C185.326 25.5208 185.156 24.724 185.156 23.7812C185.156 22.8594 185.31 22.0625 185.617 21.3906C185.93 20.7135 186.367 20.1927 186.93 19.8281C187.497 19.4635 188.164 19.2812 188.93 19.2812ZM188.914 20.3438C188.221 20.3438 187.669 20.5703 187.258 21.0234C186.846 21.4766 186.602 22.1094 186.523 22.9219H191.055C191.049 22.4115 190.969 21.9635 190.812 21.5781C190.661 21.1875 190.43 20.8854 190.117 20.6719C189.805 20.4531 189.404 20.3438 188.914 20.3438ZM197.797 16.5781C199.271 16.5781 200.346 16.8672 201.023 17.4453C201.706 18.0182 202.047 18.8411 202.047 19.9141C202.047 20.3984 201.966 20.8594 201.805 21.2969C201.648 21.7292 201.393 22.112 201.039 22.4453C200.685 22.7734 200.219 23.0339 199.641 23.2266C199.068 23.4141 198.365 23.5078 197.531 23.5078H196.141V28H194.812V16.5781H197.797ZM197.672 17.7109H196.141V22.3672H197.383C198.112 22.3672 198.719 22.2891 199.203 22.1328C199.693 21.9766 200.06 21.724 200.305 21.375C200.549 21.0208 200.672 20.5521 200.672 19.9688C200.672 19.2083 200.43 18.6432 199.945 18.2734C199.461 17.8984 198.703 17.7109 197.672 17.7109ZM207.445 19.2969C208.466 19.2969 209.224 19.526 209.719 19.9844C210.214 20.4427 210.461 21.1745 210.461 22.1797V28H209.516L209.266 26.7344H209.203C208.964 27.0469 208.714 27.3099 208.453 27.5234C208.193 27.7318 207.891 27.8906 207.547 28C207.208 28.1042 206.792 28.1562 206.297 28.1562C205.776 28.1562 205.312 28.0651 204.906 27.8828C204.505 27.7005 204.188 27.4245 203.953 27.0547C203.724 26.6849 203.609 26.2161 203.609 25.6484C203.609 24.7943 203.948 24.138 204.625 23.6797C205.302 23.2214 206.333 22.9714 207.719 22.9297L209.195 22.8672V22.3438C209.195 21.6042 209.036 21.0859 208.719 20.7891C208.401 20.4922 207.953 20.3438 207.375 20.3438C206.927 20.3438 206.5 20.4089 206.094 20.5391C205.688 20.6693 205.302 20.8229 204.938 21L204.539 20.0156C204.924 19.8177 205.367 19.6484 205.867 19.5078C206.367 19.3672 206.893 19.2969 207.445 19.2969ZM209.18 23.7812L207.875 23.8359C206.807 23.8776 206.055 24.0521 205.617 24.3594C205.18 24.6667 204.961 25.1016 204.961 25.6641C204.961 26.1536 205.109 26.5156 205.406 26.75C205.703 26.9844 206.096 27.1016 206.586 27.1016C207.346 27.1016 207.969 26.8906 208.453 26.4688C208.938 26.0469 209.18 25.4141 209.18 24.5703V23.7812ZM211.781 19.4375H213.172L215.062 24.4062C215.172 24.6979 215.273 24.9792 215.367 25.25C215.461 25.5156 215.544 25.7708 215.617 26.0156C215.69 26.2604 215.747 26.4974 215.789 26.7266H215.844C215.917 26.4661 216.021 26.125 216.156 25.7031C216.292 25.276 216.438 24.8411 216.594 24.3984L218.383 19.4375H219.781L216.055 29.2578C215.857 29.7839 215.625 30.2422 215.359 30.6328C215.099 31.0234 214.781 31.3229 214.406 31.5312C214.031 31.7448 213.578 31.8516 213.047 31.8516C212.802 31.8516 212.586 31.8359 212.398 31.8047C212.211 31.7786 212.049 31.7474 211.914 31.7109V30.6719C212.029 30.6979 212.167 30.7214 212.328 30.7422C212.495 30.763 212.667 30.7734 212.844 30.7734C213.167 30.7734 213.445 30.7109 213.68 30.5859C213.919 30.4661 214.125 30.2891 214.297 30.0547C214.469 29.8203 214.617 29.5417 214.742 29.2188L215.211 28.0156L211.781 19.4375Z" fill="white"/>
</svg>
