<svg width="56" height="56" viewBox="0 0 56 56" fill="none" xmlns="http://www.w3.org/2000/svg">
<path d="M0 28C0 12.536 12.536 0 28 0C43.464 0 56 12.536 56 28C56 43.464 43.464 56 28 56C12.536 56 0 43.464 0 28Z" fill="#CC007A"/>
<path fill-rule="evenodd" clip-rule="evenodd" d="M33.0003 18C32.0799 18 31.3337 18.7462 31.3337 19.6667C31.3337 20.5871 32.0799 21.3333 33.0003 21.3333H34.667C35.9931 21.3333 37.2648 21.8601 38.2025 22.7978C39.1402 23.7355 39.667 25.0073 39.667 26.3333C39.667 27.6594 39.1402 28.9312 38.2025 29.8689C37.2648 30.8065 35.9931 31.3333 34.667 31.3333H20.3573L24.1788 27.5118C24.8297 26.861 24.8297 25.8057 24.1788 25.1548C23.528 24.5039 22.4727 24.5039 21.8218 25.1548L15.1551 31.8215C14.5043 32.4724 14.5043 33.5276 15.1551 34.1785L21.8218 40.8452C22.4727 41.4961 23.528 41.4961 24.1788 40.8452C24.8297 40.1943 24.8297 39.139 24.1788 38.4882L20.3573 34.6667H34.667C36.8771 34.6667 38.9967 33.7887 40.5596 32.2259C42.1224 30.6631 43.0003 28.5435 43.0003 26.3333C43.0003 24.1232 42.1224 22.0036 40.5596 20.4408C38.9967 18.878 36.8771 18 34.667 18H33.0003Z" fill="#FFFDFD"/>
</svg>
