<svg width="17" height="14" viewBox="0 0 17 14" fill="none" xmlns="http://www.w3.org/2000/svg">
<path fill-rule="evenodd" clip-rule="evenodd" d="M11 0C10.4477 0 10 0.447715 10 1C10 1.55228 10.4477 2 11 2H12C12.7956 2 13.5587 2.31607 14.1213 2.87868C14.6839 3.44129 15 4.20435 15 5C15 5.79565 14.6839 6.55871 14.1213 7.12132C13.5587 7.68393 12.7956 8 12 8H3.41421L5.70711 5.70711C6.09763 5.31658 6.09763 4.68342 5.70711 4.29289C5.31658 3.90237 4.68342 3.90237 4.29289 4.29289L0.292893 8.29289C-0.0976311 8.68342 -0.0976311 9.31658 0.292893 9.70711L4.29289 13.7071C4.68342 14.0976 5.31658 14.0976 5.70711 13.7071C6.09763 13.3166 6.09763 12.6834 5.70711 12.2929L3.41421 10H12C13.3261 10 14.5979 9.47322 15.5355 8.53553C16.4732 7.59785 17 6.32608 17 5C17 3.67392 16.4732 2.40215 15.5355 1.46447C14.5979 0.526784 13.3261 0 12 0H11Z" fill="currentColor"/>
</svg>
