<svg width="40" height="40" viewBox="0 0 40 40" fill="none" xmlns="http://www.w3.org/2000/svg">
<path d="M0 20C0 8.95431 8.95431 0 20 0C31.0457 0 40 8.95431 40 20C40 31.0457 31.0457 40 20 40C8.95431 40 0 31.0457 0 20Z" fill="#CC007A"/>
<path fill-rule="evenodd" clip-rule="evenodd" d="M13.0569 11.1005C12.7789 10.9937 12.4753 10.9718 12.1849 11.0378C11.8946 11.1037 11.6305 11.2543 11.4259 11.4706C11.2287 11.6789 11.0929 11.9377 11.0336 12.2183C10.9749 12.4961 10.9934 12.7847 11.087 13.0526L13.4442 20L11.087 26.9473C10.9934 27.2153 10.9749 27.5038 11.0336 27.7816C11.0929 28.0623 11.2287 28.3211 11.4259 28.5294C11.6304 28.7456 11.8946 28.8962 12.1849 28.9621C12.4753 29.0281 12.7789 29.0063 13.0569 28.8994L13.0978 28.8837L31.2779 20L13.0978 11.1163L13.0569 11.1005ZM15.2169 19L13.3369 13.4591L24.6761 19H15.2169ZM15.2169 21L13.3369 26.5408L24.676 21H15.2169Z" fill="white"/>
</svg>
