<svg width="40" height="40" viewBox="0 0 40 40" fill="none" xmlns="http://www.w3.org/2000/svg">
<path fill-rule="evenodd" clip-rule="evenodd" d="M15.2 12C14.3513 12 13.5374 12.3371 12.9373 12.9373C12.3371 13.5374 12 14.3513 12 15.2C12 16.0487 12.3371 16.8626 12.9373 17.4627C13.5374 18.0629 14.3513 18.4 15.2 18.4C16.0487 18.4 16.8626 18.0629 17.4627 17.4627C18.0629 16.8626 18.4 16.0487 18.4 15.2C18.4 14.3513 18.0629 13.5374 17.4627 12.9373C16.8626 12.3371 16.0487 12 15.2 12ZM14.0686 14.0686C14.3687 13.7686 14.7757 13.6 15.2 13.6C15.6243 13.6 16.0313 13.7686 16.3314 14.0686C16.6314 14.3687 16.8 14.7757 16.8 15.2C16.8 15.6243 16.6314 16.0313 16.3314 16.3314C16.0313 16.6314 15.6243 16.8 15.2 16.8C14.7757 16.8 14.3687 16.6314 14.0686 16.3314C13.7686 16.0313 13.6 15.6243 13.6 15.2C13.6 14.7757 13.7686 14.3687 14.0686 14.0686ZM23.7657 13.3657C24.0781 13.0533 24.0781 12.5467 23.7657 12.2343C23.4533 11.9219 22.9467 11.9219 22.6343 12.2343L20.2343 14.6343C19.9219 14.9467 19.9219 15.4533 20.2343 15.7657L22.6343 18.1657C22.9467 18.4781 23.4533 18.4781 23.7657 18.1657C24.0781 17.8533 24.0781 17.3467 23.7657 17.0343L22.7314 16H25.6C25.8122 16 26.0157 16.0843 26.1657 16.2343C26.3157 16.3843 26.4 16.5878 26.4 16.8V19.2C26.4 19.6418 26.7582 20 27.2 20C27.6418 20 28 19.6418 28 19.2V16.8C28 16.1635 27.7471 15.553 27.2971 15.1029C26.847 14.6529 26.2365 14.4 25.6 14.4H22.7314L23.7657 13.3657ZM12.8 20C13.2418 20 13.6 20.3582 13.6 20.8V23.2C13.6 23.4122 13.6843 23.6157 13.8343 23.7657C13.9843 23.9157 14.1878 24 14.4 24H17.2686L16.2343 22.9657C15.9219 22.6533 15.9219 22.1467 16.2343 21.8343C16.5467 21.5219 17.0533 21.5219 17.3657 21.8343L19.7657 24.2343C20.0781 24.5467 20.0781 25.0533 19.7657 25.3657L17.3657 27.7657C17.0533 28.0781 16.5467 28.0781 16.2343 27.7657C15.9219 27.4533 15.9219 26.9467 16.2343 26.6343L17.2686 25.6H14.4C13.7635 25.6 13.153 25.3471 12.7029 24.8971C12.2529 24.447 12 23.8365 12 23.2V20.8C12 20.3582 12.3582 20 12.8 20ZM24.8 21.6C23.9513 21.6 23.1374 21.9371 22.5373 22.5373C21.9371 23.1374 21.6 23.9513 21.6 24.8C21.6 25.6487 21.9371 26.4626 22.5373 27.0627C23.1374 27.6629 23.9513 28 24.8 28C25.6487 28 26.4626 27.6629 27.0627 27.0627C27.6629 26.4626 28 25.6487 28 24.8C28 23.9513 27.6629 23.1374 27.0627 22.5373C26.4626 21.9371 25.6487 21.6 24.8 21.6ZM23.6686 23.6686C23.9687 23.3686 24.3757 23.2 24.8 23.2C25.2243 23.2 25.6313 23.3686 25.9314 23.6686C26.2314 23.9687 26.4 24.3757 26.4 24.8C26.4 25.2243 26.2314 25.6313 25.9314 25.9314C25.6313 26.2314 25.2243 26.4 24.8 26.4C24.3757 26.4 23.9687 26.2314 23.6686 25.9314C23.3686 25.6313 23.2 25.2243 23.2 24.8C23.2 24.3757 23.3686 23.9687 23.6686 23.6686Z" fill="currentColor"/>
</svg>
