<svg width="16" height="16" viewBox="0 0 16 16" fill="none" xmlns="http://www.w3.org/2000/svg">
<path d="M8.66634 7.33325H10.9997V8.66659H7.33301V3.99992H8.66634V7.33325Z" fill="currentColor"/>
<path fill-rule="evenodd" clip-rule="evenodd" d="M5.44845 1.84072C6.25729 1.50569 7.1242 1.33325 7.99967 1.33325C8.87515 1.33325 9.74206 1.50569 10.5509 1.84072C11.3597 2.17575 12.0947 2.66682 12.7137 3.28587C13.3328 3.90493 13.8238 4.63986 14.1589 5.4487C14.4939 6.25753 14.6663 7.12444 14.6663 7.99992C14.6663 8.8754 14.4939 9.7423 14.1589 10.5511C13.8238 11.36 13.3328 12.0949 12.7137 12.714C12.0947 13.333 11.3597 13.8241 10.5509 14.1591C9.74206 14.4941 8.87515 14.6666 7.99967 14.6666C7.1242 14.6666 6.25729 14.4941 5.44845 14.1591C4.63961 13.8241 3.90469 13.333 3.28563 12.714C2.66657 12.0949 2.17551 11.36 1.84048 10.5511C1.50545 9.7423 1.33301 8.8754 1.33301 7.99992C1.33301 7.12444 1.50545 6.25753 1.84048 5.4487C2.17551 4.63986 2.66657 3.90493 3.28563 3.28587C3.90469 2.66682 4.63961 2.17575 5.44845 1.84072ZM7.99967 2.66659C7.29929 2.66659 6.60577 2.80454 5.9587 3.07256C5.31163 3.34059 4.72368 3.73344 4.22844 4.22868C3.73319 4.72393 3.34034 5.31187 3.07232 5.95894C2.80429 6.60601 2.66634 7.29954 2.66634 7.99992C2.66634 8.7003 2.80429 9.39383 3.07232 10.0409C3.34034 10.688 3.73319 11.2759 4.22844 11.7712C4.72368 12.2664 5.31163 12.6593 5.9587 12.9273C6.60577 13.1953 7.29929 13.3333 7.99967 13.3333C8.70006 13.3333 9.39358 13.1953 10.0407 12.9273C10.6877 12.6593 11.2757 12.2664 11.7709 11.7712C12.2662 11.2759 12.659 10.688 12.927 10.0409C13.1951 9.39383 13.333 8.7003 13.333 7.99992C13.333 7.29954 13.1951 6.60601 12.927 5.95894C12.659 5.31187 12.2662 4.72393 11.7709 4.22868C11.2757 3.73344 10.6877 3.34059 10.0407 3.07256C9.39358 2.80454 8.70006 2.66659 7.99967 2.66659Z" fill="currentColor"/>
</svg>
