<svg width="24" height="24" viewBox="0 0 24 24" fill="none" xmlns="http://www.w3.org/2000/svg">
<path fill-rule="evenodd" clip-rule="evenodd" d="M4 5C4 4.45228 4.45228 4 5 4H15C15.1876 4 15.266 4.04268 15.3156 4.07864C15.3868 4.13032 15.4886 4.23877 15.626 4.486L16.112 5.35996L17.86 4.38795L17.374 3.514C17.1694 3.14623 16.8962 2.75468 16.4904 2.46011C16.063 2.14982 15.5624 2 15 2H5C3.34772 2 2 3.34772 2 5V15L2 15.0024C2.00128 15.5315 2.1422 16.0508 2.40853 16.5079C2.67485 16.965 3.05714 17.3437 3.51674 17.6057L4.38549 18.101L5.376 16.3635L4.50726 15.8683C4.35355 15.7806 4.2257 15.654 4.13662 15.5011C4.04772 15.3485 4.0006 15.1752 4 14.9986V5ZM8.48825 8.48825C8.80088 8.17563 9.22488 8 9.667 8H18.333C18.5519 8 18.7687 8.04312 18.9709 8.12689C19.1732 8.21067 19.357 8.33346 19.5117 8.48825C19.6665 8.64305 19.7893 8.82682 19.8731 9.02907C19.9569 9.23132 20 9.44808 20 9.667V18.333C20 18.5519 19.9569 18.7687 19.8731 18.9709C19.7893 19.1732 19.6665 19.3569 19.5117 19.5117C19.3569 19.6665 19.1732 19.7893 18.9709 19.8731C18.7687 19.9569 18.5519 20 18.333 20H9.667C9.44808 20 9.23132 19.9569 9.02907 19.8731C8.82682 19.7893 8.64305 19.6665 8.48825 19.5117C8.33346 19.357 8.21067 19.1732 8.12689 18.9709C8.04312 18.7687 8 18.5519 8 18.333V9.667C8 9.22488 8.17563 8.80088 8.48825 8.48825ZM9.667 6C8.69445 6 7.76173 6.38634 7.07404 7.07404C6.38634 7.76173 6 8.69445 6 9.667V18.333C6 18.8146 6.09485 19.2914 6.27913 19.7363C6.46342 20.1812 6.73353 20.5854 7.07404 20.926C7.41455 21.2665 7.8188 21.5366 8.2637 21.7209C8.7086 21.9052 9.18544 22 9.667 22H18.333C18.8146 22 19.2914 21.9052 19.7363 21.7209C20.1812 21.5366 20.5854 21.2665 20.926 20.926C21.2665 20.5854 21.5366 20.1812 21.7209 19.7363C21.9052 19.2914 22 18.8146 22 18.333V9.667C22 9.18544 21.9052 8.7086 21.7209 8.2637C21.5366 7.8188 21.2665 7.41455 20.926 7.07404C20.5854 6.73353 20.1812 6.46342 19.7363 6.27913C19.2914 6.09485 18.8146 6 18.333 6H9.667Z" fill="currentColor"/>
</svg>
