<svg width="24" height="24" viewBox="0 0 24 24" fill="currentColor" xmlns="http://www.w3.org/2000/svg">
<path fill-rule="evenodd" clip-rule="evenodd" d="M16.9633 2.99998C17.7232 2.95082 18.4118 3.27394 18.9298 3.79191C19.45 4.31215 19.7973 5.01951 19.9736 5.77174L19.9774 5.78774L21 10.901V11C21 11.7956 20.6839 12.5587 20.1213 13.1213C19.5587 13.6839 18.7957 14 18 14H16V18C16 18.7956 15.6839 19.5587 15.1213 20.1213C14.5587 20.6839 13.7957 21 13 21C12.2043 21 11.4413 20.6839 10.8787 20.1213C10.3161 19.5587 10 18.7956 10 18V17C10 16.2043 9.68393 15.4413 9.12132 14.8787C8.55871 14.316 7.79565 14 7 14H4C3.46957 14 2.96086 13.7893 2.58579 13.4142C2.21071 13.0391 2 12.5304 2 12V4.99998C2 4.46954 2.21071 3.96084 2.58579 3.58576C2.96086 3.21069 3.46957 2.99998 4 2.99998H6C6.53043 2.99998 7.03914 3.21069 7.41421 3.58576C7.48152 3.65307 7.54354 3.72469 7.6 3.79996C8.28831 3.28371 9.12953 2.99998 10 2.99998H16.9633ZM8 6.99998V12.101C8.95344 12.2956 9.83715 12.7661 10.5355 13.4644C11.4732 14.4021 12 15.6739 12 17V18C12 18.2652 12.1054 18.5195 12.2929 18.7071C12.4804 18.8946 12.7348 19 13 19C13.2652 19 13.5196 18.8946 13.7071 18.7071C13.8946 18.5195 14 18.2652 14 18V12H18C18.2652 12 18.5196 11.8946 18.7071 11.7071C18.8752 11.539 18.9773 11.3173 18.9966 11.0821L18.0229 6.21334C17.911 5.74626 17.7146 5.40521 17.5155 5.20612C17.323 5.01354 17.1715 4.989 17.0848 4.99638L17.0425 4.99998H10C9.46957 4.99998 8.96086 5.21069 8.58579 5.58576C8.21071 5.96084 8 6.46954 8 6.99998ZM6 12V4.99998H4V12H6Z" fill="currentColor"/>
</svg>
