<svg width="33" height="32" viewBox="0 0 33 32" fill="none" xmlns="http://www.w3.org/2000/svg">
<path fill-rule="evenodd" clip-rule="evenodd" d="M22.5 4.89551C21.8297 4.89551 21.1659 5.02754 20.5466 5.28407C19.9273 5.5406 19.3645 5.9166 18.8905 6.3906L4.5 20.7811V28.0001H11.719L24.7761 14.9429L26.1095 13.6096C26.5835 13.1356 26.9595 12.5728 27.216 11.9535C27.4725 11.3342 27.6046 10.6704 27.6046 10.0001C27.6046 9.32974 27.4725 8.66596 27.216 8.04664C26.9595 7.42733 26.5835 6.8646 26.1095 6.3906C25.6355 5.9166 25.0727 5.5406 24.4534 5.28407C23.8341 5.02754 23.1703 4.89551 22.5 4.89551ZM23.8333 12.1145L24.2239 11.7239C24.4502 11.4976 24.6298 11.2288 24.7523 10.933C24.8748 10.6372 24.9379 10.3202 24.9379 10.0001C24.9379 9.67992 24.8748 9.36291 24.7523 9.06713C24.6298 8.77135 24.4502 8.5026 24.2239 8.27622C23.9975 8.04984 23.7287 7.87027 23.4329 7.74775C23.1372 7.62523 22.8201 7.56217 22.5 7.56217C22.1799 7.56217 21.8628 7.62523 21.5671 7.74775C21.2713 7.87027 21.0025 8.04984 20.7761 8.27622L20.3856 8.66675L23.8333 12.1145ZM18.5 10.5524L7.16667 21.8857V25.3334H10.6144L21.9477 14.0001L18.5 10.5524Z" fill="currentColor"/>
</svg>
