<svg width="20" height="20" viewBox="0 0 20 20" fill="none" xmlns="http://www.w3.org/2000/svg">
<path fill-rule="evenodd" clip-rule="evenodd" d="M17.2559 2.74408C17.3358 2.82397 17.3961 2.91606 17.4368 3.01435C17.4772 3.11188 17.4997 3.21875 17.5 3.33083L17.5 3.33333V3.33378V7.5C17.5 7.96024 17.1269 8.33333 16.6667 8.33333C16.2064 8.33333 15.8333 7.96024 15.8333 7.5V5.34518L9.75592 11.4226C9.43049 11.748 8.90285 11.748 8.57741 11.4226C8.25197 11.0972 8.25197 10.5695 8.57741 10.2441L14.6548 4.16667H12.5C12.0398 4.16667 11.6667 3.79357 11.6667 3.33333C11.6667 2.8731 12.0398 2.5 12.5 2.5H16.6667C16.7797 2.5 16.8874 2.52249 16.9857 2.56323C17.0839 2.6039 17.176 2.66418 17.2559 2.74408ZM5 4.16667C4.33696 4.16667 3.70107 4.43006 3.23223 4.8989C2.76339 5.36774 2.5 6.00363 2.5 6.66667V15C2.5 15.663 2.76339 16.2989 3.23223 16.7678C3.70107 17.2366 4.33696 17.5 5 17.5H13.3333C13.9964 17.5 14.6323 17.2366 15.1011 16.7678C15.5699 16.2989 15.8333 15.663 15.8333 15V10C15.8333 9.53976 15.4602 9.16667 15 9.16667C14.5398 9.16667 14.1667 9.53976 14.1667 10V15C14.1667 15.221 14.0789 15.433 13.9226 15.5893C13.7663 15.7455 13.5543 15.8333 13.3333 15.8333H5C4.77899 15.8333 4.56702 15.7455 4.41074 15.5893C4.25446 15.433 4.16667 15.221 4.16667 15V6.66667C4.16667 6.44565 4.25446 6.23369 4.41074 6.07741C4.56702 5.92113 4.77899 5.83333 5 5.83333H10C10.4602 5.83333 10.8333 5.46024 10.8333 5C10.8333 4.53976 10.4602 4.16667 10 4.16667H5Z" fill="currentColor"/>
</svg>
