<svg width="24" height="24" viewBox="0 0 24 24" fill="none" xmlns="http://www.w3.org/2000/svg">
<path fill-rule="evenodd" clip-rule="evenodd" d="M12.166 9C11.3704 9 10.6073 9.31607 10.0447 9.87868C9.48209 10.4413 9.16602 11.2043 9.16602 12C9.16602 12.7957 9.48209 13.5587 10.0447 14.1213C10.6073 14.6839 11.3704 15 12.166 15C12.9617 15 13.7247 14.6839 14.2873 14.1213C14.8499 13.5587 15.166 12.7957 15.166 12C15.166 11.2043 14.8499 10.4413 14.2873 9.87868C13.7247 9.31607 12.9617 9 12.166 9ZM11.4589 11.2929C11.6464 11.1054 11.9008 11 12.166 11C12.4312 11 12.6856 11.1054 12.8731 11.2929C13.0607 11.4804 13.166 11.7348 13.166 12C13.166 12.2652 13.0607 12.5196 12.8731 12.7071C12.6856 12.8946 12.4312 13 12.166 13C11.9008 13 11.6464 12.8946 11.4589 12.7071C11.2714 12.5196 11.166 12.2652 11.166 12C11.166 11.7348 11.2714 11.4804 11.4589 11.2929Z" fill="#A8A8A8"/>
<path fill-rule="evenodd" clip-rule="evenodd" d="M12.1662 5C8.11063 5 4.82838 7.28603 2.3087 11.4855L2 12L2.3087 12.5145C4.82838 16.714 8.11063 19 12.1662 19C16.2218 19 19.504 16.714 22.0237 12.5145L22.3324 12L22.0237 11.4855C19.504 7.28603 16.2218 5 12.1662 5ZM12.1662 17C9.16733 17 6.55657 15.4411 4.34322 12C6.55657 8.55893 9.16733 7 12.1662 7C15.165 7 17.7758 8.55893 19.9892 12C17.7758 15.4411 15.165 17 12.1662 17Z" fill="#A8A8A8"/>
</svg>
