<svg width="40" height="40" viewBox="0 0 40 40" fill="none" xmlns="http://www.w3.org/2000/svg">
<path d="M21 24V26.01H19V24H21Z" fill="currentColor"/>
<path d="M20.081 13.9715C19.5238 13.97 18.9739 14.0978 18.4745 14.3449C17.9751 14.592 17.5398 14.9517 17.2031 15.3956L16.5986 16.1922L18.192 17.4011L18.7964 16.6044C18.9461 16.4071 19.1395 16.2473 19.3615 16.1374C19.5834 16.0276 19.8278 15.9708 20.0755 15.9715C20.3231 15.9722 20.5672 16.0304 20.7886 16.1414C21.0099 16.2525 21.2024 16.4134 21.351 16.6115C21.4996 16.8096 21.6002 17.0395 21.6448 17.2831C21.6895 17.5267 21.677 17.7773 21.6083 18.0152C21.5396 18.2532 21.4166 18.4719 21.249 18.6542C21.0838 18.834 20.8796 18.9736 20.6521 19.0623C20.1477 19.2435 19.7147 19.5821 19.4172 20.0283C19.1166 20.4792 18.9706 21.0156 19.0013 21.5566L19.058 22.555L21.0547 22.4418L20.9981 21.4434C20.992 21.3351 21.0212 21.2279 21.0813 21.1377C21.1414 21.0475 21.2292 20.9793 21.3314 20.9434C21.34 20.9404 21.3485 20.9372 21.3569 20.934C21.8773 20.735 22.3445 20.4179 22.7215 20.0076C23.0986 19.5974 23.3753 19.1052 23.5298 18.5699C23.6843 18.0346 23.7125 17.4707 23.6121 16.9226C23.5116 16.3745 23.2854 15.8573 22.951 15.4115C22.6167 14.9657 22.1835 14.6037 21.6855 14.3538C21.1874 14.1039 20.6382 13.9731 20.081 13.9715Z" fill="currentColor"/>
<path fill-rule="evenodd" clip-rule="evenodd" d="M16.1732 10.7612C17.3864 10.2587 18.6868 10 20 10C21.3132 10 22.6136 10.2587 23.8268 10.7612C25.0401 11.2638 26.1425 12.0003 27.0711 12.9289C27.9997 13.8575 28.7362 14.9599 29.2388 16.1732C29.7413 17.3864 30 18.6868 30 20C30 21.3132 29.7413 22.6136 29.2388 23.8268C28.7362 25.0401 27.9997 26.1425 27.0711 27.0711C26.1425 27.9997 25.0401 28.7362 23.8268 29.2388C22.6136 29.7413 21.3132 30 20 30C18.6868 30 17.3864 29.7413 16.1732 29.2388C14.9599 28.7362 13.8575 27.9997 12.9289 27.0711C12.0003 26.1425 11.2638 25.0401 10.7612 23.8268C10.2587 22.6136 10 21.3132 10 20C10 18.6868 10.2587 17.3864 10.7612 16.1732C11.2638 14.9599 12.0003 13.8575 12.9289 12.9289C13.8575 12.0003 14.9599 11.2638 16.1732 10.7612ZM20 12C18.9494 12 17.9091 12.2069 16.9385 12.609C15.9679 13.011 15.086 13.6003 14.3431 14.3431C13.6003 15.086 13.011 15.9679 12.609 16.9385C12.2069 17.9091 12 18.9494 12 20C12 21.0506 12.2069 22.0909 12.609 23.0615C13.011 24.0321 13.6003 24.914 14.3431 25.6569C15.086 26.3997 15.9679 26.989 16.9385 27.391C17.9091 27.7931 18.9494 28 20 28C21.0506 28 22.0909 27.7931 23.0615 27.391C24.0321 26.989 24.914 26.3997 25.6569 25.6569C26.3997 24.914 26.989 24.0321 27.391 23.0615C27.7931 22.0909 28 21.0506 28 20C28 18.9494 27.7931 17.9091 27.391 16.9385C26.989 15.9679 26.3997 15.086 25.6569 14.3431C24.914 13.6003 24.0321 13.011 23.0615 12.609C22.0909 12.2069 21.0506 12 20 12Z" fill="currentColor"/>
</svg>
