<svg width="25" height="24" viewBox="0 0 25 24" fill="none" xmlns="http://www.w3.org/2000/svg">
<path d="M15.5 7C14.9477 7 14.5 7.44772 14.5 8C14.5 8.55228 14.9477 9 15.5 9H15.51C16.0623 9 16.51 8.55228 16.51 8C16.51 7.44772 16.0623 7 15.51 7H15.5Z" fill="white"/>
<path fill-rule="evenodd" clip-rule="evenodd" d="M22.5 16.4144V18C22.5 19.0609 22.0786 20.0783 21.3284 20.8284C20.5783 21.5786 19.5609 22 18.5 22H6.5C5.43913 22 4.42172 21.5786 3.67157 20.8284C2.92143 20.0783 2.5 19.0609 2.5 18V16.4141L2.5 16L2.5 15.5859V6C2.5 4.93913 2.92143 3.92172 3.67157 3.17157C4.42172 2.42143 5.43913 2 6.5 2H18.5C19.5609 2 20.5783 2.42143 21.3284 3.17157C22.0786 3.92172 22.5 4.93913 22.5 6V15.5856V16V16.4144ZM5.08579 4.58579C5.46086 4.21071 5.96957 4 6.5 4H18.5C19.0304 4 19.5391 4.21071 19.9142 4.58579C20.2893 4.96086 20.5 5.46957 20.5 6V13.5856L19.2073 12.2929L19.1935 12.2794C18.5794 11.6885 17.8229 11.3303 17.0002 11.3303C16.1774 11.3303 15.4209 11.6885 14.8068 12.2794L14.793 12.2929L14.5002 12.5858L12.2073 10.2929L12.1935 10.2794C11.5794 9.68846 10.8229 9.33026 10.0002 9.33026C9.17741 9.33026 8.42091 9.68846 7.80676 10.2794L7.79304 10.2929L4.5 13.5859V6C4.5 5.46957 4.71071 4.96086 5.08579 4.58579ZM15.9144 14L16.1998 13.7146C16.5111 13.4174 16.7883 13.3303 17.0002 13.3303C17.212 13.3303 17.4892 13.4174 17.8005 13.7146L20.5 16.4141V18C20.5 18.5304 20.2893 19.0391 19.9142 19.4142C19.5391 19.7893 19.0304 20 18.5 20H6.5C5.96957 20 5.46086 19.7893 5.08579 19.4142C4.71071 19.0391 4.5 18.5304 4.5 18V16.4144L9.19982 11.7146C9.51112 11.4174 9.78832 11.3303 10.0002 11.3303C10.212 11.3303 10.4892 11.4174 10.8005 11.7146L16.5002 17.4142L17.9144 16L15.9144 14Z" fill="white"/>
</svg>
