<svg width="335" height="44" viewBox="0 0 335 44" fill="none" xmlns="http://www.w3.org/2000/svg">
<path d="M0 22C0 9.84974 9.84974 0 22 0H313C325.15 0 335 9.84974 335 22C335 34.1503 325.15 44 313 44H22C9.84973 44 0 34.1503 0 22Z" fill="black"/>
<g clip-path="url(#clip0_3934_23572)">
<path d="M189.5 18.3329L183.756 31.1658H181.98L184.114 26.675L180.333 18.3315H182.201L184.938 24.7266H184.973L187.623 18.3315L189.5 18.3329ZM165.638 22.3011V27.5H163.833V14.6671H168.609C169.748 14.6383 170.851 15.0329 171.703 15.7768C172.549 16.4711 173.014 17.4529 173 18.491C173.014 19.5443 172.534 20.5535 171.703 21.2121C170.873 21.9423 169.841 22.3011 168.609 22.3011H165.638ZM165.631 16.2498V20.7254H168.653C169.319 20.7474 169.971 20.504 170.437 20.0668C170.903 19.6515 171.16 19.085 171.16 18.4979C171.16 17.9039 170.902 17.3374 170.437 16.929C169.957 16.4711 169.312 16.2278 168.653 16.2484L165.631 16.2498ZM176.616 18.3329C177.761 18.3329 178.672 18.6546 179.337 19.2926C180.003 19.9306 180.333 20.8038 180.333 21.9134V27.2195H178.844V26.0233H178.779C178.134 27.005 177.282 27.4986 176.215 27.4986C175.297 27.4986 174.538 27.2195 173.922 26.653C173.32 26.1236 172.985 25.3495 172.998 24.5479C172.998 23.6596 173.32 22.9515 173.972 22.4208C174.617 21.8983 175.483 21.6329 176.564 21.6329C177.488 21.6329 178.247 21.8116 178.841 22.1623V21.7896C178.848 21.2451 178.611 20.7226 178.203 20.3569C177.794 19.9774 177.257 19.7629 176.699 19.7698C175.832 19.7698 175.145 20.1493 174.636 20.9083L173.268 20.02C174.02 18.8953 175.137 18.3301 176.612 18.3301L176.616 18.3329ZM174.604 24.585C174.598 25.0003 174.79 25.3866 175.12 25.6383C175.464 25.9174 175.894 26.0686 176.33 26.0604C176.982 26.0604 177.612 25.7881 178.078 25.3083C178.571 24.8504 178.852 24.2055 178.852 23.5318C178.365 23.1303 177.691 22.9295 176.825 22.9295C176.187 22.9295 175.665 23.0876 175.242 23.4025C174.82 23.7243 174.604 24.1134 174.604 24.585ZM152.984 14.6671C154.832 14.6451 156.622 15.3258 157.99 16.5798L155.856 18.6711C155.075 17.9479 154.044 17.5533 152.984 17.5753C151.08 17.5821 149.397 18.8004 148.781 20.5975C148.466 21.5064 148.466 22.495 148.781 23.4053C149.397 25.2024 151.08 26.4206 152.984 26.4275C153.993 26.4275 154.861 26.1773 155.533 25.7331C156.314 25.2175 156.859 24.4159 157.022 23.4988H152.983V20.6773H160.036C160.123 21.1709 160.166 21.6659 160.166 22.1664C160.166 24.4008 159.349 26.2914 157.938 27.566C156.699 28.6839 155.002 29.3343 152.983 29.3343C150.168 29.348 147.59 27.7874 146.293 25.2945C145.233 23.2251 145.233 20.7763 146.293 18.7055C147.59 16.2126 150.168 14.652 152.974 14.6658L152.984 14.6671Z" fill="white"/>
</g>
<defs>
<clipPath id="clip0_3934_23572">
<rect width="44" height="44" fill="white" transform="translate(145.5)"/>
</clipPath>
</defs>
</svg>
