<svg width="32" height="32" viewBox="0 0 32 32" fill="none" xmlns="http://www.w3.org/2000/svg">
<path fill-rule="evenodd" clip-rule="evenodd" d="M27.1693 18.8146L27.8857 18.1051L27.8136 18.0323C28.1919 17.5086 28.5063 16.9396 28.749 16.3372C29.1604 15.316 29.3566 14.2209 29.3253 13.1204C29.294 12.0198 29.0358 10.9376 28.5671 9.94145C28.0983 8.94528 27.4289 8.05659 26.6009 7.331C25.7728 6.60542 24.8039 6.05856 23.7548 5.72465C22.7057 5.39074 21.599 5.27697 20.5039 5.39045C19.4088 5.50394 18.3489 5.84224 17.3905 6.38419C16.8936 6.66522 16.4295 6.99787 16.0055 7.37574C15.5812 6.99324 15.1159 6.65628 14.6172 6.37142C13.6582 5.82366 12.5962 5.4804 11.498 5.36325C10.3998 5.2461 9.28928 5.3576 8.23631 5.69074C7.18334 6.02387 6.21075 6.57142 5.37979 7.29889C4.54882 8.02637 3.87749 8.91803 3.40806 9.91771C2.93863 10.9174 2.68127 12.0034 2.65219 13.1075C2.62311 14.2115 2.82293 15.3096 3.23908 16.3326C3.65446 17.3537 4.27638 18.2779 5.0658 19.0473L16.0001 29.8766L25.9831 19.9894L26.9344 19.0552C27.0144 18.9766 27.0928 18.8964 27.1693 18.8146Z" fill="#FEF9EA"/>
</svg>
