<svg width="24" height="24" viewBox="0 0 24 24" fill="none" xmlns="http://www.w3.org/2000/svg">
<path fill-rule="evenodd" clip-rule="evenodd" d="M8.41257 6.01115C7.86348 5.95258 7.30821 6.00833 6.78173 6.1749C6.25524 6.34146 5.76895 6.61524 5.35347 6.97898C4.93799 7.34272 4.60232 7.78854 4.3676 8.28838C4.13289 8.78822 4.00421 9.33124 3.98967 9.88326C3.97513 10.4353 4.07504 10.9843 4.28312 11.4958C4.49119 12.0073 4.80292 12.4702 5.19868 12.8553L5.20499 12.8615L12.0013 19.5926L18.9412 12.7193C19.2675 12.3647 19.5274 11.9536 19.7079 11.5056C19.9136 10.995 20.0116 10.4474 19.996 9.89714C19.9803 9.34688 19.8513 8.80577 19.6169 8.30768C19.3825 7.8096 19.0478 7.36525 18.6338 7.00246C18.2198 6.63967 17.7353 6.36624 17.2108 6.19928C16.6862 6.03233 16.1328 5.97544 15.5853 6.03219C15.0377 6.08893 14.5078 6.25808 14.0286 6.52905C13.5495 6.80003 13.1314 7.16699 12.8005 7.60697L11.9966 8.67613L11.1987 7.60251C10.8693 7.15931 10.4517 6.78912 9.97218 6.51524C9.49268 6.24136 8.96166 6.06973 8.41257 6.01115ZM20.3782 14.1109L20.9155 13.5788L20.8614 13.5242C21.1451 13.1314 21.381 12.7047 21.563 12.2529C21.8715 11.487 22.0187 10.6657 21.9952 9.84027C21.9717 9.01488 21.7781 8.20322 21.4265 7.45609C21.0749 6.70896 20.5729 6.04244 19.9519 5.49825C19.3308 4.95406 18.6042 4.54392 17.8173 4.29349C17.0305 4.04305 16.2005 3.95773 15.3791 4.04284C14.5578 4.12796 13.7629 4.38168 13.0441 4.78814C12.6714 4.99891 12.3233 5.2484 12.0054 5.5318C11.6871 5.24493 11.3382 4.99221 10.9641 4.77856C10.2449 4.36774 9.44835 4.1103 8.62472 4.02244C7.80108 3.93458 6.96818 4.0182 6.17845 4.26805C5.38872 4.5179 4.65928 4.92856 4.03606 5.47417C3.41284 6.01978 2.90934 6.68852 2.55727 7.43828C2.20519 8.18804 2.01217 9.00257 1.99036 9.8306C1.96855 10.6586 2.11842 11.4822 2.43053 12.2494C2.74207 13.0153 3.20851 13.7084 3.80057 14.2855L12.0013 22.4074L19.4885 14.9921L20.202 14.2914C20.2621 14.2324 20.3208 14.1723 20.3782 14.1109Z" fill="currentColor"/>
</svg>
