<svg width="56" height="56" viewBox="0 0 56 56" fill="none" xmlns="http://www.w3.org/2000/svg">
<g filter="url(#filter0_d_726_45406)">
<path d="M8 24C8 12.9543 16.9543 4 28 4C39.0457 4 48 12.9543 48 24C48 35.0457 39.0457 44 28 44C16.9543 44 8 35.0457 8 24Z" fill="white" shape-rendering="crispEdges"/>
<path fill-rule="evenodd" clip-rule="evenodd" d="M24 17C23.4696 17 22.9609 17.2107 22.5858 17.5858C22.2107 17.9609 22 18.4696 22 19V22H34V19C34 18.4696 33.7893 17.9609 33.4142 17.5858C33.0391 17.2107 32.5304 17 32 17H24ZM19 22H20V19C20 17.9391 20.4214 16.9217 21.1716 16.1716C21.9217 15.4214 22.9391 15 24 15H32C33.0609 15 34.0783 15.4214 34.8284 16.1716C35.5786 16.9217 36 17.9391 36 19V22H37C37.5523 22 38 22.4477 38 23C38 23.5523 37.5523 24 37 24H35H21H19C18.4477 24 18 23.5523 18 23C18 22.4477 18.4477 22 19 22ZM23 25C22.4747 25 21.9546 25.1035 21.4693 25.3045C20.984 25.5055 20.543 25.8001 20.1716 26.1716C19.8001 26.543 19.5055 26.984 19.3045 27.4693C19.1035 27.9546 19 28.4747 19 29C19 29.5253 19.1035 30.0454 19.3045 30.5307C19.5055 31.016 19.8001 31.457 20.1716 31.8284C20.543 32.1999 20.984 32.4945 21.4693 32.6955C21.9546 32.8965 22.4747 33 23 33C23.5253 33 24.0454 32.8965 24.5307 32.6955C25.016 32.4945 25.457 32.1999 25.8284 31.8284C26.1999 31.457 26.4945 31.016 26.6955 30.5307C26.7671 30.3578 26.8264 30.1804 26.873 30H29.127C29.3042 30.686 29.662 31.3189 30.1716 31.8284C30.9217 32.5786 31.9391 33 33 33C34.0609 33 35.0783 32.5786 35.8284 31.8284C36.5786 31.0783 37 30.0609 37 29C37 27.9391 36.5786 26.9217 35.8284 26.1716C35.0783 25.4214 34.0609 25 33 25C31.9391 25 30.9217 25.4214 30.1716 26.1716C29.662 26.6811 29.3042 27.314 29.127 28H26.873C26.8264 27.8196 26.7671 27.6422 26.6955 27.4693C26.4945 26.984 26.1999 26.543 25.8284 26.1716C25.457 25.8001 25.016 25.5055 24.5307 25.3045C24.0454 25.1035 23.5253 25 23 25ZM31 29C31 29.5304 31.2107 30.0391 31.5858 30.4142C31.9609 30.7893 32.4696 31 33 31C33.5304 31 34.0391 30.7893 34.4142 30.4142C34.7893 30.0391 35 29.5304 35 29C35 28.4696 34.7893 27.9609 34.4142 27.5858C34.0391 27.2107 33.5304 27 33 27C32.4696 27 31.9609 27.2107 31.5858 27.5858C31.2107 27.9609 31 28.4696 31 29ZM25 29C25 28.7374 24.9483 28.4773 24.8478 28.2346C24.7472 27.992 24.5999 27.7715 24.4142 27.5858C24.2285 27.4001 24.008 27.2528 23.7654 27.1522C23.5227 27.0517 23.2626 27 23 27C22.7374 27 22.4773 27.0517 22.2346 27.1522C21.992 27.2528 21.7715 27.4001 21.5858 27.5858C21.4001 27.7715 21.2528 27.992 21.1522 28.2346C21.0517 28.4773 21 28.7374 21 29C21 29.2626 21.0517 29.5227 21.1522 29.7654C21.2528 30.008 21.4001 30.2285 21.5858 30.4142C21.7715 30.5999 21.992 30.7473 22.2346 30.8478C22.4773 30.9483 22.7374 31 23 31C23.2626 31 23.5227 30.9483 23.7654 30.8478C24.008 30.7473 24.2285 30.5999 24.4142 30.4142C24.5999 30.2285 24.7472 30.008 24.8478 29.7654C24.9483 29.5227 25 29.2626 25 29Z" fill="currentColor"/>
</g>
<defs>
<filter id="filter0_d_726_45406" x="0" y="0" width="56" height="56" filterUnits="userSpaceOnUse" color-interpolation-filters="sRGB">
<feFlood flood-opacity="0" result="BackgroundImageFix"/>
<feColorMatrix in="SourceAlpha" type="matrix" values="0 0 0 0 0 0 0 0 0 0 0 0 0 0 0 0 0 0 127 0" result="hardAlpha"/>
<feOffset dy="4"/>
<feGaussianBlur stdDeviation="4"/>
<feComposite in2="hardAlpha" operator="out"/>
<feColorMatrix type="matrix" values="0 0 0 0 0 0 0 0 0 0 0 0 0 0 0 0 0 0 0.08 0"/>
<feBlend mode="normal" in2="BackgroundImageFix" result="effect1_dropShadow_726_45406"/>
<feBlend mode="normal" in="SourceGraphic" in2="effect1_dropShadow_726_45406" result="shape"/>
</filter>
</defs>
</svg>
