<svg width="56" height="56" viewBox="0 0 56 56" fill="none" xmlns="http://www.w3.org/2000/svg">
<g filter="url(#filter0_d_726_45409)">
<path d="M8 24C8 12.9543 16.9543 4 28 4C39.0457 4 48 12.9543 48 24C48 35.0457 39.0457 44 28 44C16.9543 44 8 35.0457 8 24Z" fill="#000" shape-rendering="crispEdges"/>
<path fill-rule="evenodd" clip-rule="evenodd" d="M19.7071 14.2929C19.3166 13.9024 18.6834 13.9024 18.2929 14.2929C17.9024 14.6834 17.9024 15.3166 18.2929 15.7071L20.2348 17.649C20.0832 18.0715 20.0004 18.5266 20.0004 19V22H19C18.4477 22 18 22.4477 18 23C18 23.5523 18.4477 24 19 24H20.9915L21.0004 24L21.0093 24H26.5858L29.5539 26.9681C29.4597 27.1278 29.3765 27.2942 29.3051 27.4662C29.2329 27.6401 29.1732 27.8185 29.1263 28H26.8732C26.8266 27.8196 26.7674 27.6422 26.6957 27.4693C26.4947 26.984 26.2001 26.543 25.8286 26.1716C25.4572 25.8001 25.0162 25.5055 24.5309 25.3045C24.0456 25.1035 23.5255 25 23.0002 25C22.4749 25 21.9548 25.1035 21.4695 25.3045C20.9842 25.5055 20.5432 25.8002 20.1718 26.1716C19.8003 26.543 19.5057 26.984 19.3047 27.4693C19.1037 27.9546 19.0002 28.4747 19.0002 29C19.0002 29.5253 19.1037 30.0454 19.3047 30.5307C19.5057 31.016 19.8003 31.457 20.1718 31.8284C20.5432 32.1999 20.9842 32.4945 21.4695 32.6955C21.9548 32.8966 22.4749 33 23.0002 33C23.5255 33 24.0456 32.8966 24.5309 32.6955C25.0162 32.4945 25.4572 32.1999 25.8286 31.8284C26.2001 31.457 26.4947 31.016 26.6957 30.5307C26.7674 30.3578 26.8266 30.1804 26.8732 30H29.1261C29.1724 30.1794 29.2312 30.3558 29.3022 30.5279C29.5028 31.0134 29.7971 31.4546 30.1682 31.8265C30.5393 32.1983 30.98 32.4933 31.4651 32.6948C31.9503 32.8963 32.4703 33.0003 32.9957 33.0008C33.521 33.0013 34.0413 32.8983 34.5268 32.6977C34.7012 32.6256 34.87 32.5415 35.0318 32.446L36.2929 33.7071C36.6834 34.0976 37.3166 34.0976 37.7071 33.7071C38.0976 33.3166 38.0976 32.6834 37.7071 32.2929L31.6314 26.2172C31.6174 26.2013 31.6029 26.1858 31.5877 26.1706C31.5721 26.1549 31.5561 26.1399 31.5398 26.1255L27.7113 22.2971C27.7085 22.2943 27.7057 22.2914 27.7028 22.2886L19.7071 14.2929ZM24.5858 22L22.0004 19.4146V22H24.5858ZM31.0676 28.4818C31.0258 28.6374 31.0029 28.7978 30.9996 28.9594C31.0001 28.9728 31.0004 28.9864 31.0004 29C31.0004 29.0137 31.0001 29.0274 30.9996 29.041C31.0046 29.2892 31.0558 29.5345 31.1507 29.7642C31.251 30.007 31.3981 30.2277 31.5837 30.4136C31.7693 30.5995 31.9896 30.747 32.2322 30.8478C32.4748 30.9485 32.7349 31.0005 32.9975 31.0008C33.1737 31.0009 33.3487 30.9778 33.5181 30.9323L31.0676 28.4818ZM24.0004 15C23.4481 15 23.0004 15.4477 23.0004 16C23.0004 16.5523 23.4481 17 24.0004 17H32.0004C32.5308 17 33.0396 17.2107 33.4146 17.5858C33.7897 17.9609 34.0004 18.4696 34.0004 19V22H31C30.4477 22 30 22.4477 30 23C30 23.5523 30.4477 24 31 24H34.9915L35.0004 24L35.0093 24H37C37.5523 24 38 23.5523 38 23C38 22.4477 37.5523 22 37 22H36.0004V19C36.0004 17.9391 35.579 16.9217 34.8288 16.1716C34.0787 15.4214 33.0613 15 32.0004 15H24.0004ZM23.0002 27C22.7376 27 22.4775 27.0517 22.2348 27.1523C21.9922 27.2528 21.7717 27.4001 21.586 27.5858C21.4003 27.7715 21.253 27.992 21.1524 28.2346C21.0519 28.4773 21.0002 28.7374 21.0002 29C21.0002 29.2627 21.0519 29.5227 21.1524 29.7654C21.253 30.008 21.4003 30.2285 21.586 30.4142C21.7717 30.5999 21.9922 30.7473 22.2348 30.8478C22.4775 30.9483 22.7376 31 23.0002 31C23.2628 31 23.5229 30.9483 23.7656 30.8478C24.0082 30.7473 24.2287 30.5999 24.4144 30.4142C24.6001 30.2285 24.7475 30.008 24.848 29.7654C24.9485 29.5227 25.0002 29.2627 25.0002 29C25.0002 28.7374 24.9485 28.4773 24.848 28.2346C24.7475 27.992 24.6001 27.7715 24.4144 27.5858C24.2287 27.4001 24.0082 27.2528 23.7656 27.1523C23.5229 27.0517 23.2628 27 23.0002 27ZM34.7131 25.3848C34.2143 25.1478 33.6178 25.36 33.3807 25.8588C33.1437 26.3576 33.3559 26.9542 33.8547 27.1912C34.2716 27.3893 34.6077 27.7247 34.8066 28.1411C35.0447 28.6394 35.6417 28.8504 36.14 28.6123C36.6384 28.3742 36.8493 27.7772 36.6112 27.2789C36.2145 26.4485 35.5443 25.7798 34.7131 25.3848Z" fill="currentColor"/>
</g>
<defs>
<filter id="filter0_d_726_45409" x="0" y="0" width="56" height="56" filterUnits="userSpaceOnUse" color-interpolation-filters="sRGB">
<feFlood flood-opacity="0" result="BackgroundImageFix"/>
<feColorMatrix in="SourceAlpha" type="matrix" values="0 0 0 0 0 0 0 0 0 0 0 0 0 0 0 0 0 0 127 0" result="hardAlpha"/>
<feOffset dy="4"/>
<feGaussianBlur stdDeviation="4"/>
<feComposite in2="hardAlpha" operator="out"/>
<feColorMatrix type="matrix" values="0 0 0 0 0 0 0 0 0 0 0 0 0 0 0 0 0 0 0.08 0"/>
<feBlend mode="normal" in2="BackgroundImageFix" result="effect1_dropShadow_726_45409"/>
<feBlend mode="normal" in="SourceGraphic" in2="effect1_dropShadow_726_45409" result="shape"/>
</filter>
</defs>
</svg>
