<svg width="40" height="40" viewBox="0 0 40 40" fill="none" xmlns="http://www.w3.org/2000/svg">
<path d="M24 15H16V17H24V15Z" fill="currentColor"/>
<path fill-rule="evenodd" clip-rule="evenodd" d="M28 29V11H15C14.2044 11 13.4413 11.3161 12.8787 11.8787C12.3161 12.4413 12 13.2044 12 14V26C12 26.7956 12.3161 27.5587 12.8787 28.1213C13.4413 28.6839 14.2043 29 15 29H28ZM15 13C14.7348 13 14.4804 13.1054 14.2929 13.2929C14.1054 13.4804 14 13.7348 14 14V23.1716C14.3182 23.0591 14.6561 23 15 23H26V13H15ZM14.2929 26.7071C14.1054 26.5196 14 26.2652 14 26C14 25.7348 14.1054 25.4804 14.2929 25.2929C14.4804 25.1054 14.7348 25 15 25H26V27H15C14.7348 27 14.4804 26.8946 14.2929 26.7071Z" fill="currentColor"/>
</svg>
