<svg width="25" height="24" viewBox="0 0 25 24" fill="none" xmlns="http://www.w3.org/2000/svg">
<path fill-rule="evenodd" clip-rule="evenodd" d="M4.79289 6.29289C4.98043 6.10536 5.23478 6 5.5 6H19.5C19.7652 6 20.0196 6.10536 20.2071 6.29289C20.2803 6.36609 20.341 6.44947 20.3878 6.5397L12.5001 11.7981L4.61229 6.53959C4.65906 6.4494 4.71972 6.36606 4.79289 6.29289ZM4.5 8.86843L12.5001 14.2018L20.5 8.86857V17C20.5 17.2652 20.3946 17.5196 20.2071 17.7071C20.0196 17.8946 19.7652 18 19.5 18H5.5C5.23478 18 4.98043 17.8946 4.79289 17.7071C4.60536 17.5196 4.5 17.2652 4.5 17V8.86843ZM22.5 7.01973V17C22.5 17.7957 22.1839 18.5587 21.6213 19.1213C21.0587 19.6839 20.2957 20 19.5 20H5.5C4.70435 20 3.94129 19.6839 3.37868 19.1213C2.81607 18.5587 2.5 17.7956 2.5 17V7C2.5 6.9998 2.5 6.9996 2.5 6.9994C2.50016 6.20397 2.81621 5.44115 3.37868 4.87868C3.94129 4.31607 4.70435 4 5.5 4H19.5C20.2957 4 21.0587 4.31607 21.6213 4.87868C22.1776 5.43499 22.4929 6.18728 22.4999 6.97328C22.5003 6.98877 22.5003 7.00426 22.5 7.01973Z" fill="#252525"/>
</svg>
