<svg width="24" height="24" viewBox="0 0 24 24" fill="none" xmlns="http://www.w3.org/2000/svg">
<path fill-rule="evenodd" clip-rule="evenodd" d="M4.29289 6.29289C4.48043 6.10536 4.73478 6 5 6H19C19.2652 6 19.5196 6.10536 19.7071 6.29289C19.7803 6.36609 19.841 6.44947 19.8878 6.5397L12.0001 11.7981L4.11229 6.53959C4.15906 6.4494 4.21972 6.36606 4.29289 6.29289ZM4 8.86843L12.0001 14.2018L20 8.86857V17C20 17.2652 19.8946 17.5196 19.7071 17.7071C19.5196 17.8946 19.2652 18 19 18H5C4.73478 18 4.48043 17.8946 4.29289 17.7071C4.10536 17.5196 4 17.2652 4 17V8.86843ZM22 7.01973V17C22 17.7957 21.6839 18.5587 21.1213 19.1213C20.5587 19.6839 19.7957 20 19 20H5C4.20435 20 3.44129 19.6839 2.87868 19.1213C2.31607 18.5587 2 17.7956 2 17V7C2 6.9998 2 6.9996 2 6.9994C2.00016 6.20397 2.31621 5.44115 2.87868 4.87868C3.44129 4.31607 4.20435 4 5 4H19C19.7957 4 20.5587 4.31607 21.1213 4.87868C21.6776 5.43499 21.9929 6.18728 21.9999 6.97328C22.0003 6.98877 22.0003 7.00426 22 7.01973Z" fill="#CC007A"/>
</svg>
