<svg width="25" height="24" viewBox="0 0 25 24" fill="none" xmlns="http://www.w3.org/2000/svg">
<path fill-rule="evenodd" clip-rule="evenodd" d="M12.5 8.86869C13.1627 8.86869 13.7 9.42243 13.7 10.1055V10.1179C13.7 10.8009 13.1627 11.3547 12.5 11.3547C11.8373 11.3547 11.3 10.8009 11.3 10.1179V10.1055C11.3 9.42243 11.8373 8.86869 12.5 8.86869ZM10.7142 6.9623C11.2581 6.64206 11.8736 6.47362 12.5 6.47362C13.1264 6.47362 13.7419 6.64206 14.2858 6.9623C14.8296 7.28254 15.283 7.74349 15.6011 8.29961C15.9193 8.85574 16.0911 9.48778 16.0997 10.1333C16.108 10.7586 15.9628 11.3756 15.678 11.9271L12.5 16.6064L9.32198 11.9271C9.03723 11.3756 8.89204 10.7586 8.90034 10.1333C8.9089 9.48778 9.08074 8.85574 9.39885 8.29961C9.71697 7.74349 10.1704 7.28254 10.7142 6.9623ZM12.5 4C11.4561 4 10.4302 4.28073 9.52372 4.81446C8.61727 5.34819 7.86162 6.11645 7.33142 7.04332C6.80123 7.97019 6.51484 9.0236 6.50056 10.0995C6.48628 11.1753 6.7446 12.2364 7.25 13.1779C7.27041 13.2159 7.29275 13.2528 7.31692 13.2884L11.5169 19.4725C11.7415 19.8031 12.1084 20 12.5 20C12.8916 20 13.2585 19.8031 13.4831 19.4725L17.6831 13.2884C17.7073 13.2528 17.7296 13.2159 17.75 13.1779C18.2554 12.2364 18.5137 11.1753 18.4994 10.0995C18.4852 9.0236 18.1988 7.97019 17.6686 7.04332C17.1384 6.11645 16.3827 5.34819 15.4763 4.81446C14.5698 4.28073 13.5439 4 12.5 4Z" fill="currentColor"/>
</svg>
