<svg width="24" height="24" viewBox="0 0 24 24" fill="currentColor" xmlns="http://www.w3.org/2000/svg">
<path fill-rule="evenodd" clip-rule="evenodd" d="M12 2C10.6739 2 9.40215 2.52678 8.46447 3.46447C7.52678 4.40215 7 5.67392 7 7C7 8.32608 7.52678 9.59785 8.46447 10.5355C9.40215 11.4732 10.6739 12 12 12C13.3261 12 14.5979 11.4732 15.5355 10.5355C16.4732 9.59785 17 8.32608 17 7C17 5.67392 16.4732 4.40215 15.5355 3.46447C14.5979 2.52678 13.3261 2 12 2ZM9.87868 4.87868C10.4413 4.31607 11.2044 4 12 4C12.7956 4 13.5587 4.31607 14.1213 4.87868C14.6839 5.44129 15 6.20435 15 7C15 7.79565 14.6839 8.55871 14.1213 9.12132C13.5587 9.68393 12.7956 10 12 10C11.2044 10 10.4413 9.68393 9.87868 9.12132C9.31607 8.55871 9 7.79565 9 7C9 6.20435 9.31607 5.44129 9.87868 4.87868ZM7.87868 16.8787C8.44129 16.3161 9.20435 16 10 16H14C14.2615 16 14.5157 16.0338 14.7584 16.0963L15.7267 16.346L16.226 14.4093L15.2576 14.1597C14.8563 14.0562 14.4345 14 14 14H10C8.67392 14 7.40215 14.5268 6.46447 15.4645C5.52678 16.4021 5 17.6739 5 19V22H7V19C7 18.2043 7.31607 17.4413 7.87868 16.8787ZM20 15V20H18V15H20ZM20 23.01V21H18V23.01H20Z" fill="currentColor"/>
</svg>
