<svg width="40" height="40" viewBox="0 0 40 40" fill="none" xmlns="http://www.w3.org/2000/svg">
<path d="M17.0002 24.4142L24.4144 17L23.0002 15.5858L15.5859 23L17.0002 24.4142Z" fill="currentColor"/>
<path fill-rule="evenodd" clip-rule="evenodd" d="M17.5 16C16.6716 16 16 16.6716 16 17.5C16 18.3284 16.6716 19 17.5 19C18.3284 19 19 18.3284 19 17.5C19 16.6716 18.3284 16 17.5 16Z" fill="currentColor"/>
<path fill-rule="evenodd" clip-rule="evenodd" d="M21 22.5C21 21.6716 21.6716 21 22.5 21C23.3284 21 24 21.6716 24 22.5C24 23.3284 23.3284 24 22.5 24C21.6716 24 21 23.3284 21 22.5Z" fill="currentColor"/>
<path fill-rule="evenodd" clip-rule="evenodd" d="M20 10C18.6868 10 17.3864 10.2587 16.1732 10.7612C14.9599 11.2638 13.8575 12.0003 12.9289 12.9289C12.0003 13.8575 11.2638 14.9599 10.7612 16.1732C10.2587 17.3864 10 18.6868 10 20C10 21.3132 10.2587 22.6136 10.7612 23.8268C11.2638 25.0401 12.0003 26.1425 12.9289 27.0711C13.8575 27.9997 14.9599 28.7362 16.1732 29.2388C17.3864 29.7413 18.6868 30 20 30C21.3132 30 22.6136 29.7413 23.8268 29.2388C25.0401 28.7362 26.1425 27.9997 27.0711 27.0711C27.9997 26.1425 28.7362 25.0401 29.2388 23.8268C29.7413 22.6136 30 21.3132 30 20C30 18.6868 29.7413 17.3864 29.2388 16.1732C28.7362 14.9599 27.9997 13.8575 27.0711 12.9289C26.1425 12.0003 25.0401 11.2638 23.8268 10.7612C22.6136 10.2587 21.3132 10 20 10ZM16.9385 12.609C17.9091 12.2069 18.9494 12 20 12C21.0506 12 22.0909 12.2069 23.0615 12.609C24.0321 13.011 24.914 13.6003 25.6569 14.3431C26.3997 15.086 26.989 15.9679 27.391 16.9385C27.7931 17.9091 28 18.9494 28 20C28 21.0506 27.7931 22.0909 27.391 23.0615C26.989 24.0321 26.3997 24.914 25.6569 25.6569C24.914 26.3997 24.0321 26.989 23.0615 27.391C22.0909 27.7931 21.0506 28 20 28C18.9494 28 17.9091 27.7931 16.9385 27.391C15.9679 26.989 15.086 26.3997 14.3431 25.6569C13.6003 24.914 13.011 24.0321 12.609 23.0615C12.2069 22.0909 12 21.0506 12 20C12 18.9494 12.2069 17.9091 12.609 16.9385C13.011 15.9679 13.6003 15.086 14.3431 14.3431C15.086 13.6003 15.9679 13.011 16.9385 12.609Z" fill="currentColor"/>
</svg>
