<svg width="20" height="20" viewBox="0 0 20 20" fill="none" xmlns="http://www.w3.org/2000/svg">
<path d="M9.16667 8.33317V14.9998H7.5V8.33317H9.16667Z" fill="#E4261A"/>
<path d="M12.5 14.9998V8.33317H10.8333V14.9998H12.5Z" fill="#E4261A"/>
<path fill-rule="evenodd" clip-rule="evenodd" d="M8.33333 1.6665C7.89131 1.6665 7.46738 1.8421 7.15482 2.15466C6.84226 2.46722 6.66667 2.89114 6.66667 3.33317V4.99984H4.93304H4.13161H2.5V6.6665H3.39948L4.16655 15.8713C4.17645 16.5206 4.43865 17.1411 4.89849 17.6009C5.36733 18.0698 6.00322 18.3332 6.66626 18.3332H13.3329C13.996 18.3332 14.6319 18.0698 15.1007 17.6009C15.5605 17.1411 15.8227 16.5206 15.8326 15.8713L16.5997 6.6665H17.5V4.99984H15.8676H15.0662H13.3333V3.33317C13.3333 2.89114 13.1577 2.46722 12.8452 2.15466C12.5326 1.8421 12.1087 1.6665 11.6667 1.6665H8.33333ZM11.6667 4.99984V3.33317H8.33333V4.99984H11.6667ZM5.07193 6.6665L5.83005 15.764C5.83197 15.787 5.83293 15.8101 5.83293 15.8332C5.83293 16.0542 5.92072 16.2661 6.077 16.4224C6.23329 16.5787 6.44525 16.6665 6.66626 16.6665H13.3329C13.5539 16.6665 13.7659 16.5787 13.9222 16.4224C14.0785 16.2661 14.1663 16.0542 14.1663 15.8332C14.1663 15.8101 14.1672 15.787 14.1691 15.764L14.9273 6.6665H5.07193Z" fill="#E4261A"/>
</svg>
