<svg width="40" height="40" viewBox="0 0 40 40" fill="none" xmlns="http://www.w3.org/2000/svg">
<path d="M19 18V26H17V18H19Z" fill="#CC007A"/>
<path d="M23 26V18H21V26H23Z" fill="#CC007A"/>
<path fill-rule="evenodd" clip-rule="evenodd" d="M18 10C17.4696 10 16.9609 10.2107 16.5858 10.5858C16.2107 10.9609 16 11.4696 16 12V14H13.9196H12.9579H11V16H12.0794L12.9999 27.0458C13.0117 27.8249 13.3264 28.5695 13.8782 29.1213C14.4408 29.6839 15.2039 30 15.9995 30H23.9995C24.7952 30 25.5582 29.6839 26.1208 29.1213C26.6726 28.5695 26.9873 27.8249 26.9992 27.0458L27.9196 16H29V14H27.0411H26.0794H24V12C24 11.4696 23.7893 10.9609 23.4142 10.5858C23.0391 10.2107 22.5304 10 22 10H18ZM22 14V12H18V14H22ZM14.0863 16L14.9961 26.917C14.9984 26.9446 14.9995 26.9723 14.9995 27C14.9995 27.2652 15.1049 27.5196 15.2924 27.7071C15.4799 27.8946 15.7343 28 15.9995 28H23.9995C24.2647 28 24.5191 27.8946 24.7066 27.7071C24.8942 27.5196 24.9995 27.2652 24.9995 27C24.9995 26.9723 25.0007 26.9446 25.003 26.917L25.9127 16H14.0863Z" fill="#CC007A"/>
</svg>
