<svg width="20" height="20" viewBox="0 0 20 20" fill="none" xmlns="http://www.w3.org/2000/svg">
<path fill-rule="evenodd" clip-rule="evenodd" d="M7.1595 1.66666C6.05444 1.66666 4.99463 2.10564 4.21323 2.88704C3.43183 3.66845 2.99284 4.72825 2.99284 5.83332C2.99284 6.93839 3.43183 7.9982 4.21323 8.7796C4.99463 9.561 6.05444 9.99999 7.1595 9.99999C8.26457 9.99999 9.32438 9.561 10.1058 8.7796C10.8872 7.9982 11.3262 6.93839 11.3262 5.83332C11.3262 4.72825 10.8872 3.66845 10.1058 2.88704C9.32438 2.10564 8.26457 1.66666 7.1595 1.66666ZM5.39174 4.06556C5.86058 3.59672 6.49646 3.33332 7.1595 3.33332C7.82255 3.33332 8.45843 3.59672 8.92727 4.06556C9.39611 4.5344 9.6595 5.17028 9.6595 5.83332C9.6595 6.49636 9.39611 7.13225 8.92727 7.60109C8.45843 8.06993 7.82255 8.33332 7.1595 8.33332C6.49646 8.33332 5.86058 8.06993 5.39174 7.60109C4.9229 7.13225 4.65951 6.49636 4.65951 5.83332C4.65951 5.17028 4.9229 4.5344 5.39174 4.06556ZM3.72507 14.0656C4.19391 13.5967 4.8298 13.3333 5.49284 13.3333H8.82617C9.48921 13.3333 10.1251 13.5967 10.5939 14.0656C11.0628 14.5344 11.3262 15.1703 11.3262 15.8333V18.3333H12.9928V15.8333C12.9928 14.7283 12.5539 13.6684 11.7725 12.887C10.991 12.1056 9.93124 11.6667 8.82617 11.6667H5.49284C4.38777 11.6667 3.32796 12.1056 2.54656 12.887C1.76516 13.6684 1.32617 14.7283 1.32617 15.8333V18.3333H2.99284V15.8333C2.99284 15.1703 3.25623 14.5344 3.72507 14.0656ZM13.8262 1.77499H14.6595C15.9399 1.77499 17.0101 2.29718 17.491 2.91666C18.0378 3.62119 18.3327 4.7842 18.3327 5.83332C18.3327 6.80585 18.0835 7.74763 17.491 8.51097C16.9085 9.26134 15.9677 9.89999 14.6595 9.89999H13.8262V8.23333H14.6595C15.3644 8.23333 15.8492 7.90799 16.1744 7.48901C16.4895 7.083 16.666 6.52746 16.666 5.83332C16.666 5.08637 16.6101 4.63147 16.2493 4.16666C16.0741 3.90568 15.3922 3.44166 14.6595 3.44166H13.8262V1.77499ZM14.666 11.5667H13.8327V13.2333H14.666C14.9991 13.2333 15.219 13.2839 15.3797 13.3572C15.5351 13.4281 15.6836 13.5422 15.842 13.7455C16.1017 14.0788 16.1616 14.5204 16.166 15.2654V18.2333H17.8327V15.263L17.8327 15.2582C17.8285 14.5332 17.8011 13.5482 17.1567 12.7211C16.8629 12.3441 16.5114 12.0416 16.0715 11.8409C15.6369 11.6426 15.1663 11.5667 14.666 11.5667Z" fill="currentColor"/>
</svg>
