<svg width="24" height="24" viewBox="0 0 24 24" fill="none" xmlns="http://www.w3.org/2000/svg">
<path d="M0.5 12C0.5 5.64873 5.64873 0.5 12 0.5C18.3513 0.5 23.5 5.64873 23.5 12C23.5 18.3513 18.3513 23.5 12 23.5C5.64873 23.5 0.5 18.3513 0.5 12Z" fill="#CC007A"/>
<path d="M0.5 12C0.5 5.64873 5.64873 0.5 12 0.5C18.3513 0.5 23.5 5.64873 23.5 12C23.5 18.3513 18.3513 23.5 12 23.5C5.64873 23.5 0.5 18.3513 0.5 12Z" stroke="white"/>
<path fill-rule="evenodd" clip-rule="evenodd" d="M18.2762 8.66669L10.6668 16.2762L6.39062 12L7.33343 11.0572L10.6668 14.3905L17.3334 7.72388L18.2762 8.66669Z" fill="white"/>
</svg>
