<svg width="20" height="20" viewBox="0 0 20 20" fill="none" xmlns="http://www.w3.org/2000/svg">
<path d="M9.99875 1.66668C10.6469 1.66672 11.2729 1.90282 11.7596 2.33084L11.8879 2.45168L12.4696 3.03334C12.6292 3.19194 12.8377 3.29206 13.0612 3.31751L13.1737 3.32418H14.0071C14.6881 3.32414 15.3433 3.58465 15.8384 4.05229C16.3335 4.51994 16.6308 5.15927 16.6696 5.83918L16.6737 5.99084V6.82418C16.6737 7.04918 16.7504 7.26834 16.8887 7.44335L16.9637 7.52668L17.5446 8.10835C18.026 8.58705 18.3067 9.23136 18.3295 9.9099C18.3523 10.5884 18.1154 11.2501 17.6671 11.76L17.5462 11.8883L16.9646 12.47C16.806 12.6296 16.7059 12.8381 16.6804 13.0617L16.6737 13.1742V14.0075C16.6738 14.6885 16.4133 15.3437 15.9456 15.8388C15.478 16.3339 14.8387 16.6313 14.1587 16.67L14.0071 16.6742H13.1737C12.9491 16.6743 12.731 16.75 12.5546 16.8892L12.4712 16.9642L11.8896 17.545C11.4109 18.0264 10.7666 18.3072 10.088 18.3299C9.40948 18.3527 8.74781 18.1158 8.23792 17.6675L8.10958 17.5467L7.52792 16.965C7.36828 16.8064 7.15982 16.7063 6.93625 16.6808L6.82375 16.6742H5.99041C5.3094 16.6742 4.65418 16.4137 4.15911 15.9461C3.66404 15.4784 3.36665 14.8391 3.32791 14.1592L3.32375 14.0075V13.1742C3.32367 12.9495 3.24794 12.7314 3.10875 12.555L3.03375 12.4717L2.45291 11.89C1.97148 11.4113 1.69077 10.767 1.668 10.0885C1.64524 9.40991 1.88215 8.74824 2.33041 8.23835L2.45125 8.11001L3.03291 7.52835C3.19151 7.36871 3.29163 7.16026 3.31708 6.93668L3.32375 6.82418V5.99084L3.32791 5.83918C3.36512 5.18538 3.6416 4.56814 4.10465 4.10508C4.56771 3.64203 5.18495 3.36555 5.83875 3.32834L5.99041 3.32418H6.82375C7.04843 3.3241 7.26654 3.24837 7.44291 3.10918L7.52625 3.03418L8.10791 2.45334C8.3557 2.20409 8.65031 2.00627 8.9748 1.87126C9.2993 1.73626 9.64729 1.66673 9.99875 1.66668Z" fill="#00E1FD"/>
<path fill-rule="evenodd" clip-rule="evenodd" d="M10.8429 5.41667V8.57492L13.6603 6.99015L14.4774 8.44278L11.709 10L14.4774 11.5573L13.6603 13.0099L10.8429 11.4251V14.5833H9.17627V11.4247L6.35812 13.0099L5.54102 11.5573L8.30944 10L5.54102 8.44278L6.35812 6.99015L9.17627 8.57536V5.41667H10.8429Z" fill="white"/>
</svg>
