<svg width="16" height="16" viewBox="0 0 16 16" fill="none" xmlns="http://www.w3.org/2000/svg">
<path d="M7.9988 1.33337C8.51733 1.33341 9.01809 1.52229 9.40747 1.86471L9.51014 1.96137L9.97547 2.42671C10.1032 2.55358 10.2699 2.63368 10.4488 2.65404L10.5388 2.65937H11.2055C11.7503 2.65934 12.2745 2.86775 12.6705 3.24187C13.0666 3.61598 13.3045 4.12744 13.3355 4.67137L13.3388 4.79271V5.45937C13.3388 5.63937 13.4001 5.81471 13.5108 5.95471L13.5708 6.02137L14.0355 6.48671C14.4206 6.86967 14.6452 7.38512 14.6634 7.92795C14.6816 8.47079 14.4921 9.00013 14.1335 9.40804L14.0368 9.51071L13.5715 9.97604C13.4446 10.1037 13.3645 10.2705 13.3441 10.4494L13.3388 10.5394V11.206C13.3388 11.7509 13.1304 12.275 12.7563 12.6711C12.3822 13.0671 11.8707 13.3051 11.3268 13.336L11.2055 13.3394H10.5388C10.3591 13.3394 10.1846 13.4 10.0435 13.5114L9.9768 13.5714L9.51147 14.036C9.1285 14.4212 8.61306 14.6458 8.07022 14.664C7.52739 14.6822 6.99805 14.4927 6.59014 14.134L6.48747 14.0374L6.02214 13.572C5.89443 13.4452 5.72766 13.3651 5.5488 13.3447L5.4588 13.3394H4.79214C4.24732 13.3394 3.72315 13.131 3.32709 12.7569C2.93104 12.3828 2.69312 11.8713 2.66214 11.3274L2.6588 11.206V10.5394C2.65874 10.3596 2.59815 10.1851 2.4868 10.044L2.4268 9.97737L1.96214 9.51204C1.57699 9.12908 1.35242 8.61363 1.33421 8.07079C1.316 7.52796 1.50552 6.99862 1.86414 6.59071L1.9608 6.48804L2.42614 6.02271C2.55301 5.895 2.63311 5.72824 2.65347 5.54937L2.6588 5.45937V4.79271L2.66214 4.67137C2.6919 4.14834 2.91309 3.65454 3.28353 3.2841C3.65397 2.91366 4.14777 2.69248 4.6708 2.66271L4.79214 2.65937H5.4588C5.63855 2.65931 5.81304 2.59873 5.95414 2.48737L6.0208 2.42737L6.48614 1.96271C6.68436 1.7633 6.92005 1.60504 7.17965 1.49704C7.43925 1.38904 7.71763 1.33341 7.9988 1.33337Z" fill="#00E1FD"/>
<path fill-rule="evenodd" clip-rule="evenodd" d="M8.67415 4.33337V6.85998L10.9281 5.59216L11.5817 6.75426L9.36699 8.00005L11.5817 9.24584L10.9281 10.4079L8.67415 9.14013V11.6667H7.34082V9.13978L5.0863 10.4079L4.43262 9.24584L6.64736 8.00005L4.43262 6.75426L5.0863 5.59216L7.34082 6.86033V4.33337H8.67415Z" fill="white"/>
</svg>
