<svg width="24" height="24" viewBox="0 0 24 24" fill="none" xmlns="http://www.w3.org/2000/svg">
<path fill-rule="evenodd" clip-rule="evenodd" d="M6.1327 2H17.8673L19 9.92893V10C19 13.4101 16.2411 15.5734 13 15.9434V20H17V22H13H11H7V20H11V15.9434C7.75893 15.5734 5 13.4101 5 10V9.92893L6.1327 2ZM7.03573 10.5153C7.31836 12.5249 9.25407 14 12 14C14.1148 14 15.7491 13.125 16.5177 11.8048C16.0251 11.9336 15.5151 12 14.9996 12C13.7014 12 12.4382 11.5789 11.3996 10.8C10.7072 10.2807 9.86509 10 8.99961 10C8.30867 10 7.6326 10.1789 7.03573 10.5153ZM16.9197 9.50903C16.3337 9.82971 15.6737 10 14.9996 10C14.1341 10 13.292 9.71929 12.5996 9.2C11.561 8.42107 10.2978 8 8.99961 8C8.40605 8 7.81981 8.08802 7.25901 8.25802L7.8673 4H16.1327L16.9197 9.50903Z" fill="#00A9BE"/>
</svg>
