<svg width="40" height="40" viewBox="0 0 40 40" fill="none" xmlns="http://www.w3.org/2000/svg">
<path fill-rule="evenodd" clip-rule="evenodd" d="M20 17C18.9391 17 17.9217 17.4214 17.1716 18.1716C16.4214 18.9217 16 19.9391 16 21C16 22.0609 16.4214 23.0783 17.1716 23.8284C17.9217 24.5786 18.9391 25 20 25C21.0609 25 22.0783 24.5786 22.8284 23.8284C23.5786 23.0783 24 22.0609 24 21C24 19.9391 23.5786 18.9217 22.8284 18.1716C22.0783 17.4214 21.0609 17 20 17ZM18.5858 19.5858C18.9609 19.2107 19.4696 19 20 19C20.5304 19 21.0391 19.2107 21.4142 19.5858C21.7893 19.9609 22 20.4696 22 21C22 21.5304 21.7893 22.0391 21.4142 22.4142C21.0391 22.7893 20.5304 23 20 23C19.4696 23 18.9609 22.7893 18.5858 22.4142C18.2107 22.0391 18 21.5304 18 21C18 20.4696 18.2107 19.9609 18.5858 19.5858Z" fill="#CC007A"/>
<path fill-rule="evenodd" clip-rule="evenodd" d="M17 11C16.4696 11 15.9609 11.2107 15.5858 11.5858C15.2107 11.9609 15 12.4696 15 13C15 13.2652 14.8946 13.5196 14.7071 13.7071C14.5196 13.8946 14.2652 14 14 14H13C12.2044 14 11.4413 14.3161 10.8787 14.8787C10.3161 15.4413 10 16.2044 10 17V26C10 26.7956 10.3161 27.5587 10.8787 28.1213C11.4413 28.6839 12.2043 29 13 29H27C27.7957 29 28.5587 28.6839 29.1213 28.1213C29.6839 27.5587 30 26.7957 30 26V17C30 16.2043 29.6839 15.4413 29.1213 14.8787C28.5587 14.3161 27.7957 14 27 14H26C25.7348 14 25.4804 13.8946 25.2929 13.7071C25.1054 13.5196 25 13.2652 25 13C25 12.4696 24.7893 11.9609 24.4142 11.5858C24.0391 11.2107 23.5304 11 23 11H17ZM17 13L23 13C23 13.7957 23.3161 14.5587 23.8787 15.1213C24.4413 15.6839 25.2044 16 26 16H27C27.2652 16 27.5196 16.1054 27.7071 16.2929C27.8946 16.4804 28 16.7348 28 17V26C28 26.2652 27.8946 26.5196 27.7071 26.7071C27.5196 26.8946 27.2652 27 27 27H13C12.7348 27 12.4804 26.8946 12.2929 26.7071C12.1054 26.5196 12 26.2652 12 26V17C12 16.7348 12.1054 16.4804 12.2929 16.2929C12.4804 16.1054 12.7348 16 13 16H14C14.7956 16 15.5587 15.6839 16.1213 15.1213C16.6839 14.5587 17 13.7956 17 13Z" fill="#CC007A"/>
</svg>
