<svg width="40" height="40" viewBox="0 0 40 40" fill="none" xmlns="http://www.w3.org/2000/svg">
<path d="M14 15C13.2043 15 12.4413 15.3161 11.8787 15.8787C11.3161 16.4413 11 17.2044 11 18V22C11 22.7956 11.3161 23.5587 11.8787 24.1213C12.4413 24.6839 13.2043 25 14 25H17V19H14V21H15V23H14C13.7348 23 13.4804 22.8946 13.2929 22.7071C13.1054 22.5196 13 22.2652 13 22V18C13 17.7348 13.1054 17.4804 13.2929 17.2929C13.4804 17.1054 13.7348 17 14 17H17V15H14Z" fill="#CC007A"/>
<path d="M21 25V15H19V25H21Z" fill="#CC007A"/>
<path d="M25 19H28V21H25V25H23V15H29V17H25V19Z" fill="#CC007A"/>
</svg>
