<svg width="40" height="40" viewBox="0 0 40 40" fill="none" xmlns="http://www.w3.org/2000/svg">
<path fill-rule="evenodd" clip-rule="evenodd" d="M20 9C18.9391 9 17.9217 9.42143 17.1716 10.1716C16.4214 10.9217 16 11.9391 16 13V18C16 19.0609 16.4214 20.0783 17.1716 20.8284C17.9217 21.5786 18.9391 22 20 22C21.0609 22 22.0783 21.5786 22.8284 20.8284C23.5786 20.0783 24 19.0609 24 18V13C24 11.9391 23.5786 10.9217 22.8284 10.1716C22.0783 9.42143 21.0609 9 20 9ZM18.5858 11.5858C18.9609 11.2107 19.4696 11 20 11C20.5304 11 21.0391 11.2107 21.4142 11.5858C21.7893 11.9609 22 12.4696 22 13V18C22 18.5304 21.7893 19.0391 21.4142 19.4142C21.0391 19.7893 20.5304 20 20 20C19.4696 20 18.9609 19.7893 18.5858 19.4142C18.2107 19.0391 18 18.5304 18 18V13C18 12.4696 18.2107 11.9609 18.5858 11.5858Z" fill="#CC007A"/>
<path d="M14 18V17H12V18C12 20.1217 12.8429 22.1566 14.3431 23.6569C15.6058 24.9195 17.247 25.7165 19 25.9373V28H15V30H25V28H21V25.9373C22.753 25.7165 24.3942 24.9195 25.6569 23.6569C27.1571 22.1566 28 20.1217 28 18V17H26V18C26 19.5913 25.3679 21.1174 24.2426 22.2426C23.1174 23.3679 21.5913 24 20 24C18.4087 24 16.8826 23.3679 15.7574 22.2426C14.6321 21.1174 14 19.5913 14 18Z" fill="#CC007A"/>
</svg>
