<svg width="40" height="40" viewBox="0 0 40 40" fill="none" xmlns="http://www.w3.org/2000/svg">
<path fill-rule="evenodd" clip-rule="evenodd" d="M20.0938 16C17.8846 16 16.0938 17.7909 16.0938 20C16.0938 22.2091 17.8846 24 20.0938 24C22.3029 24 24.0938 22.2091 24.0938 20C24.0938 17.7909 22.3029 16 20.0938 16ZM18.0938 20C18.0938 18.8954 18.9892 18 20.0938 18C21.1983 18 22.0938 18.8954 22.0938 20C22.0938 21.1046 21.1983 22 20.0938 22C18.9892 22 18.0938 21.1046 18.0938 20Z" fill="currentColor"/>
<path fill-rule="evenodd" clip-rule="evenodd" d="M22.8184 10H17.3699L16.5992 12.8022C16.3531 12.9219 16.1141 13.0538 15.8831 13.197L12.7241 12.3728L10 17.0913L12.1291 19.2486C12.1059 19.4963 12.0941 19.747 12.0941 20C12.0941 20.2759 12.1082 20.5489 12.1356 20.8185L10.1435 22.8369L12.8678 27.5554L15.8443 26.7788C16.0873 26.9314 16.3393 27.0714 16.5992 27.1978L17.3699 30H22.8184L23.589 27.1978C24.0293 26.9837 24.4466 26.7306 24.8366 26.4432L27.3204 27.0914L30.0447 22.3728L28.0849 20.3871C28.091 20.2587 28.0941 20.1297 28.0941 20C28.0941 19.8941 28.092 19.7886 28.0879 19.6835L30.1883 17.5554L27.4641 12.8369L24.8021 13.5315C24.422 13.2545 24.0163 13.01 23.589 12.8022L22.8184 10ZM18.2661 14.2835C17.5329 14.5178 16.861 14.8893 16.2805 15.3677L13.6941 14.6928L12.4941 16.7713L14.2663 18.5669C14.1537 19.0261 14.0941 19.5061 14.0941 20C14.0941 20.515 14.159 21.0149 14.2811 21.4919L12.6377 23.1569L13.8377 25.2354L16.249 24.6062C16.8366 25.0973 17.5196 25.4779 18.2661 25.7165L18.8941 28H21.2941L21.9221 25.7165C22.8427 25.4223 23.6666 24.912 24.3342 24.2452L26.3505 24.7713L27.5505 22.6928L25.9911 21.1128C26.0587 20.7522 26.0941 20.3802 26.0941 20C26.0941 19.6416 26.0627 19.2905 26.0024 18.9494L27.6941 17.2354L26.4941 15.1569L24.3068 15.7276C23.6441 15.0741 22.8301 14.5737 21.9221 14.2835L21.2941 12H18.8941L18.2661 14.2835Z" fill="currentColor"/>
</svg>
