<svg width="40" height="40" viewBox="0 0 40 40" fill="none" xmlns="http://www.w3.org/2000/svg">
<path d="M10.8787 11.8787C11.4413 11.3161 12.2044 11 13 11H20C20.7956 11 21.5587 11.3161 22.1213 11.8787C22.6839 12.4413 23 13.2043 23 14V17H21V14C21 13.7348 20.8946 13.4804 20.7071 13.2929C20.5196 13.1054 20.2652 13 20 13H13C12.7348 13 12.4804 13.1054 12.2929 13.2929C12.1054 13.4804 12 13.7348 12 14V26C12 26.2652 12.1054 26.5196 12.2929 26.7071C12.4804 26.8946 12.7348 27 13 27H20C20.2652 27 20.5196 26.8946 20.7071 26.7071C20.8946 26.5196 21 26.2652 21 26V23H23V26C23 26.7957 22.6839 27.5587 22.1213 28.1213C21.5587 28.6839 20.7957 29 20 29H13C12.2043 29 11.4413 28.6839 10.8787 28.1213C10.3161 27.5587 10 26.7956 10 26V14C10 13.2044 10.3161 12.4413 10.8787 11.8787Z" fill="currentColor"/>
<path d="M26.5859 21L24.5859 23L26.0002 24.4142L30.4144 20L26 15.5858L24.5858 17L26.5858 19H16V21H26.5859Z" fill="currentColor"/>
</svg>
