<svg width="40" height="40" viewBox="0 0 40 40" fill="none" xmlns="http://www.w3.org/2000/svg">
<path fill-rule="evenodd" clip-rule="evenodd" d="M24.5 11.6716C23.9972 11.6716 23.4994 11.7706 23.0349 11.963C22.5704 12.1554 22.1484 12.4374 21.7929 12.7929L11 23.5858V29H16.4142L26.2071 19.2071L27.2071 18.2071C27.5626 17.8516 27.8446 17.4296 28.037 16.9651C28.2294 16.5006 28.3284 16.0028 28.3284 15.5C28.3284 14.9972 28.2294 14.4994 28.037 14.0349C27.8446 13.5704 27.5626 13.1484 27.2071 12.7929C26.8516 12.4374 26.4296 12.1554 25.9651 11.963C25.5006 11.7706 25.0028 11.6716 24.5 11.6716ZM25.5 17.0858L25.7929 16.7929C25.9627 16.6231 26.0974 16.4215 26.1892 16.1997C26.2811 15.9779 26.3284 15.7401 26.3284 15.5C26.3284 15.2599 26.2811 15.0221 26.1892 14.8003C26.0974 14.5785 25.9627 14.3769 25.7929 14.2071C25.6231 14.0373 25.4215 13.9026 25.1997 13.8108C24.9779 13.7189 24.7401 13.6716 24.5 13.6716C24.2599 13.6716 24.0221 13.7189 23.8003 13.8108C23.5785 13.9026 23.3769 14.0373 23.2071 14.2071L22.9142 14.5L25.5 17.0858ZM21.5 15.9142L13 24.4142V27H15.5858L24.0858 18.5L21.5 15.9142Z" fill="currentColor"/>
</svg>
