<svg width="40" height="40" viewBox="0 0 40 40" fill="none" xmlns="http://www.w3.org/2000/svg">
<path d="M21 26.01V24H19V26.01H21Z" fill="currentColor"/>
<path fill-rule="evenodd" clip-rule="evenodd" d="M13.8787 10.8787C14.4413 10.3161 15.2044 10 16 10H24C24.7956 10 25.5587 10.3161 26.1213 10.8787C26.6839 11.4413 27 12.2043 27 13V27C27 27.7957 26.6839 28.5587 26.1213 29.1213C25.5587 29.6839 24.7957 30 24 30H16C15.2043 30 14.4413 29.6839 13.8787 29.1213C13.3161 28.5587 13 27.7957 13 27V13C13 12.2044 13.3161 11.4413 13.8787 10.8787ZM16 12C15.7348 12 15.4804 12.1054 15.2929 12.2929C15.1054 12.4804 15 12.7348 15 13V27C15 27.2652 15.1054 27.5196 15.2929 27.7071C15.4804 27.8946 15.7348 28 16 28H24C24.2652 28 24.5196 27.8946 24.7071 27.7071C24.8946 27.5196 25 27.2652 25 27V13C25 12.7348 24.8946 12.4804 24.7071 12.2929C24.5196 12.1054 24.2652 12 24 12H22V13H18V12H16Z" fill="currentColor"/>
</svg>
