<svg width="40" height="40" viewBox="0 0 40 40" fill="none" xmlns="http://www.w3.org/2000/svg">
<path fill-rule="evenodd" clip-rule="evenodd" d="M19.3382 10.251C19.7165 9.91632 20.2851 9.91632 20.6634 10.251C22.8046 12.1454 25.5992 13.1317 28.4551 13.001C28.9153 12.98 29.3303 13.276 29.4602 13.718C29.9516 15.3896 30.102 17.1429 29.9024 18.8737C29.7027 20.6046 29.1572 22.2777 28.2982 23.7935C27.4392 25.3094 26.2843 26.6371 24.902 27.6978C23.5198 28.7585 21.9384 29.5305 20.2519 29.968C20.0872 30.0107 19.9144 30.0107 19.7497 29.968C18.0632 29.5305 16.4818 28.7585 15.0996 27.6978C13.7173 26.6371 12.5624 25.3094 11.7034 23.7935C10.8444 22.2777 10.2989 20.6046 10.0993 18.8737C9.89966 17.1429 10.05 15.3896 10.5414 13.718C10.6713 13.276 11.0863 12.98 11.5465 13.001C14.4024 13.1317 17.197 12.1454 19.3382 10.251ZM12.2728 15.0106C12.0097 16.2015 11.946 17.4296 12.0861 18.6446C12.255 20.1092 12.7166 21.5249 13.4434 22.8075C14.1703 24.0902 15.1475 25.2136 16.3171 26.1111C17.4179 26.9558 18.6679 27.5841 20.0008 27.9637C21.3337 27.5841 22.5837 26.9558 23.6845 26.1111C24.8541 25.2136 25.8314 24.0902 26.5582 22.8075C27.285 21.5249 27.7466 20.1092 27.9155 18.6446C28.0556 17.4296 27.992 16.2015 27.7288 15.0106C24.9277 14.9626 22.2165 14.0104 20.0008 12.2972C17.7852 14.0104 15.0739 14.9626 12.2728 15.0106Z" fill="currentColor"/>
</svg>
