<svg width="24" height="24" viewBox="0 0 24 24" fill="none" xmlns="http://www.w3.org/2000/svg">
<path fill-rule="evenodd" clip-rule="evenodd" d="M6.29289 5.29289C6.48043 5.10536 6.73478 5 7 5H15C15.2652 5 15.5196 5.10536 15.7071 5.29289C15.8946 5.48043 16 5.73478 16 6V15H18V6C18 5.20435 17.6839 4.44129 17.1213 3.87868C16.5587 3.31607 15.7956 3 15 3H7C6.20435 3 5.44129 3.31607 4.87868 3.87868C4.31607 4.44129 4 5.20435 4 6V18C4 18.7956 4.31607 19.5587 4.87868 20.1213C5.44129 20.6839 6.20435 21 7 21H10.615V19H7C6.73478 19 6.48043 18.8946 6.29289 18.7071C6.10536 18.5196 6 18.2652 6 18V6C6 5.73478 6.10536 5.48043 6.29289 5.29289ZM16.7073 21.7071L21.4144 17L20.0002 15.5858L16.0002 19.5858L14.0002 17.5858L12.5859 19L15.293 21.7071C15.6836 22.0977 16.3167 22.0977 16.7073 21.7071ZM8 7H14V9H8V7ZM12 11H8V13H12V11Z" fill="currentColor"/>
</svg>
